<svg width="1920" height="918" viewBox="0 0 1920 918" fill="none" xmlns="http://www.w3.org/2000/svg">
<path d="M1657.07 763.533C1675.46 735.085 1686.22 728.6 1698.63 721.251C1711.03 713.901 1726.39 704.909 1735.16 689.69C1743.92 674.472 1757.54 644.555 1757.54 644.555L1701.92 684.848L1662.71 728.514L1657.07 763.447V763.533Z" fill="white" fill-opacity="0.04"/>
<path d="M1913.81 449.572C1877.36 445.508 1825.57 407.03 1772.2 327.567C1752.77 308.977 1713.72 289.435 1674.68 264.792L1716.15 343.91C1716.15 343.91 1625.74 249.574 1608.39 245.424C1601.54 267.819 1602.4 296.526 1602.4 296.526C1602.4 296.526 1617.67 305.951 1623.23 334.658C1628.69 363.365 1643.18 392.59 1643.18 392.59C1643.18 392.59 1621.93 372.271 1617.24 349.443C1612.64 326.616 1577.76 301.195 1576.98 287.706C1576.11 274.131 1587.57 234.788 1582.45 220.003C1577.42 205.217 1553.64 158.698 1472.51 150.224C1450.48 160.773 1414.82 184.032 1390.61 200.98C1366.49 217.927 1348.18 241.965 1334.64 258.048C1321.02 274.131 1316.77 286.841 1303.23 294.451C1289.61 302.06 1197.99 342.267 1186.97 349.443C1175.86 356.62 1163.63 388.786 1150.87 402.707C1138.12 416.628 1119.46 415.418 1117.73 422.162C1116.08 428.906 1092.74 456.835 1085.54 481.392C1078.25 505.948 1072.35 526.873 1048.14 533.531C1023.93 540.189 984.196 594.058 977.168 607.287C1018.47 581.866 1047.27 581.347 1060.29 564.4C1073.3 547.539 1087.45 524.971 1090.31 506.9C1093.17 488.828 1113.48 441.444 1151.39 429.598V476.982C1151.39 476.982 1181.42 374.951 1192.69 362.5C1204.06 350.135 1308.7 310.101 1308.7 310.101C1308.7 310.101 1285.1 361.808 1228.36 387.316C1309.31 369.331 1310.96 345.639 1323.97 314.597C1336.99 283.556 1337.59 280.184 1353.47 268.943C1369.26 257.616 1364.75 240.755 1374.9 231.676C1385.14 222.683 1439.98 183.168 1460.37 177.547L1456.46 200.98C1456.46 200.98 1472.86 209.713 1475.12 217.063C1477.37 224.412 1482.49 233.924 1499.41 246.375C1515.9 258.394 1529.09 329.988 1529.87 334.398L1493.77 269.462L1479.63 289.262L1459.33 237.123C1460.45 243.435 1479.11 345.12 1487.96 361.116C1485.88 358.263 1469.65 335.522 1464.88 334.658C1459.85 333.793 1458.72 348.406 1452.99 349.011C1447.35 349.53 1439.46 339.413 1437.2 315.721C1435.03 292.981 1414.12 274.477 1412.39 272.92C1413.08 274.909 1425.83 308.458 1424.71 328.173C1423.58 348.406 1420.2 355.756 1423.58 364.229C1426.96 372.703 1439.98 368.726 1442.84 378.323C1445.62 387.662 1491.34 540.276 1494.21 549.873C1490.56 543.561 1449.44 471.362 1445.1 471.362C1440.76 471.362 1420.8 502.403 1420.8 508.629C1420.8 514.854 1437.2 519.264 1437.72 529.986C1438.33 540.708 1430.95 563.276 1430.95 576.246C1430.95 589.216 1456.46 649.57 1458.02 653.374C1455.68 650.261 1424.97 608.152 1415.68 572.874C1406.05 536.212 1389.65 527.219 1389.05 509.753C1388.53 492.2 1386.79 486.061 1376.03 468.508C1365.36 451.042 1357.46 436.948 1357.46 422.335C1348.87 450.523 1364.75 478.106 1366.49 489.433C1368.14 500.674 1351.3 512.001 1357.46 529.986C1363.62 548.058 1372.65 536.471 1378.89 566.821C1385.14 597.084 1373.78 615.761 1375.51 647.84C1377.25 680.006 1384.53 718.397 1412.3 735.864L1430.35 785.409C1429.05 783.161 1407.96 747.623 1397.03 744.856C1385.66 742.089 1362.58 732.491 1357.46 713.815C1352.34 695.224 1342.71 665.393 1327.44 645.073C1344.36 703.698 1335.34 733.615 1342.11 749.958C1348.87 766.3 1369.87 762.928 1369.87 762.928C1369.87 762.928 1367.01 793.969 1377.77 806.334C1388.53 818.699 1394.17 817.575 1394.17 817.575C1394.17 817.575 1385.66 836.252 1398.68 861.586C1411.69 887.008 1417.94 916.839 1417.94 916.839C1417.94 916.839 1420.2 878.534 1432.08 866.083C1443.97 853.718 1468.35 836.77 1476.77 807.458C1485.27 778.146 1482.49 769.153 1472.25 765.695C1462.1 762.322 1451.34 732.491 1451.86 706.551C1468.87 749.352 1484.75 758.95 1505.66 766.819L1495.51 867.812C1495.51 867.812 1511.91 836.252 1526.57 815.932C1541.32 795.612 1541.84 783.247 1556.59 778.146C1571.25 773.044 1584.27 766.3 1584.27 766.3C1584.27 766.3 1591.64 788.868 1605.79 789.387C1605.79 789.387 1630 791.116 1631.21 789.127C1632.34 787.138 1637.72 777.108 1637.72 777.108C1637.72 777.108 1622.19 749.352 1621.06 713.296C1619.93 677.239 1636.94 663.664 1600.15 618.009C1629.04 629.25 1643.7 668.765 1644.31 689.604C1644.83 710.442 1659.32 727.909 1659.32 727.909L1696.11 689.604C1696.11 689.604 1671.47 662.54 1660.71 628.731C1650.47 596.479 1642.84 569.588 1642.14 566.994C1644.05 570.28 1674.77 623.457 1689.6 635.994C1704.87 648.964 1717.63 643.171 1731.08 661.329L1744.35 650.434C1744.35 650.434 1712.16 557.656 1713.9 557.656C1715.63 557.656 1768.21 603.829 1768.21 603.829C1768.21 603.829 1778.1 552.468 1807.95 535.866C1837.89 519.264 1915.37 458.132 1915.37 458.132L1913.81 449.572ZM1540.19 426.226C1537.42 416.109 1519.02 387.056 1528.31 367.861C1525.79 381.696 1546.44 415.504 1553.21 423.113C1559.97 430.722 1536.81 460.294 1537.33 467.903C1537.85 475.512 1565.35 538.373 1565.35 538.373C1565.35 538.373 1513.56 486.753 1515.03 472.14C1516.42 457.44 1543.06 436.343 1540.19 426.139V426.226ZM1534.99 707.589C1531.17 727.909 1532.47 763.447 1532.47 763.447C1532.47 763.447 1508.26 723.24 1521.88 694.533C1535.51 665.739 1543.14 658.13 1543.49 647.408C1543.92 636.6 1518.07 569.415 1518.41 531.283C1530.73 568.464 1580.8 654.758 1580.8 654.758C1580.8 654.758 1538.8 687.356 1534.99 707.589ZM1571.95 406.425C1571.95 395.011 1582.97 356.101 1580.89 339.154C1586.79 361.116 1588.52 396.654 1590.26 404.696C1591.99 412.737 1620.8 454.155 1621.67 499.463C1606.83 461.85 1572.04 417.839 1572.04 406.425H1571.95ZM1702.71 492.719L1692.55 499.463L1650.56 412.737L1692.99 465.568H1717.63C1717.63 465.568 1735.42 544.685 1735.42 545.896C1735.42 547.107 1702.71 492.632 1702.71 492.632V492.719ZM1755.37 419.309C1753.29 417.406 1747.3 423.718 1735.42 422.076C1723.53 420.346 1692.12 363.278 1690.82 362.846C1690.82 362.846 1735.42 400.891 1738.8 401.756C1742.18 402.621 1756.59 399.681 1760.4 400.459C1764.22 401.324 1801.18 465.136 1801.18 465.136C1801.18 465.136 1757.45 421.124 1755.37 419.222V419.309ZM1847.08 476.204C1840.32 481.305 1816.98 458.824 1795.28 423.718C1808.47 433.057 1853.85 471.102 1847.08 476.204Z" fill="white" fill-opacity="0.04"/>
<path d="M759.559 693.322C813.875 678.969 881.465 649.051 892.832 637.205C904.111 625.359 924.935 587.573 948.449 571.231C971.962 554.889 1048.75 520.129 1048.75 520.129L1055.78 494.535C1055.78 494.535 978.643 537.941 948.449 552.641C918.254 567.34 889.968 614.637 874.697 628.213C859.427 641.788 759.559 693.322 759.559 693.322Z" fill="white" fill-opacity="0.04"/>
<path d="M1267.57 147.111C1267.57 147.111 1265.84 179.882 1283.71 216.198C1250.57 179.363 1233.82 116.242 1233.82 116.242L1164.84 47.5013C1164.84 47.5013 1164.67 122.9 1185.23 158.698C1145.75 115.118 1153.82 86.4114 1152.96 73.7008C1152.09 60.9901 1116.86 26.7493 1116.86 26.7493C1116.86 26.7493 1125.36 60.9901 1133.43 72.8361C1114.78 45.772 1080.94 -6.45399 1036.26 0.895693C1028.62 2.1927 1036.26 19.0537 1042.59 25.8846C1048.92 32.629 1056.99 41.5351 1057.86 53.3811C1058.73 65.227 1074 89.3513 1074 89.3513C1074 89.3513 1055.34 72.4038 1048.58 58.9149C1041.81 45.3396 1026.1 26.7493 1020.12 30.5538C1014.22 34.3584 974.305 62.7195 961.984 67.3887C949.663 72.0579 885.63 122.814 885.63 122.814C885.63 122.814 826.195 230.206 824.547 246.289C822.811 262.371 780.383 310.188 768.062 327.913C755.741 345.639 740.904 389.218 731.533 412.478C722.163 435.737 668.715 524.107 668.715 524.107L710.276 479.317C710.276 479.317 719.994 492.892 724.245 500.501C728.497 508.11 700.471 563.881 677.999 584.46C655.526 605.039 539.434 669.284 539.434 669.284C600.777 646.889 680.515 617.231 694.571 599.506C708.541 581.78 748.453 510.272 748.453 497.994C748.453 485.715 727.542 480.268 726.067 464.963C724.679 449.745 743.854 441.877 745.59 422.94C747.325 404.091 784.374 317.191 821.683 281.135C827.323 307.075 823.679 366.564 823.679 366.564C823.679 366.564 852.832 274.65 853.7 213.777C902.462 145.295 919.469 147.371 936.909 123.246C954.349 99.122 971.702 96.1821 988.274 85.2009C1004.85 74.2196 1020.98 66.6105 1033.22 70.8474C1045.45 75.0842 1057.86 90.7347 1056.56 107.682C1055.26 124.63 1077.82 182.563 1077.82 182.563C1077.82 182.563 1058.55 156.882 1052.05 144.517C1045.54 132.152 1041.29 140.28 1034.52 146.765C1027.75 153.25 1015 165.615 1008.75 165.096C1002.5 164.491 988.968 127.31 984.109 127.915C979.337 128.521 984.37 165.961 990.877 176.683C997.384 187.405 1009.27 203.487 1007.28 214.469C1005.28 225.45 1020.55 272.229 1020.55 272.229C1020.55 272.229 996.517 239.544 990.27 220.089C990.27 220.089 978.383 237.815 974.391 238.161C970.4 238.507 945.238 190.777 945.238 190.777C945.238 190.777 946.106 226.834 947.494 237.901C948.882 248.883 959.641 254.849 961.116 258.221C962.591 261.593 957.125 285.285 962.504 296.872C967.884 308.458 983.415 343.131 983.415 343.131L991.311 283.642C991.311 283.642 1044.24 281.913 1052.39 290.387C1060.64 298.86 1051.27 318.315 1060.64 337.77C1070.01 357.226 1092.39 404.609 1079.03 409.711C1064.89 415.072 1061.76 402.966 1047.36 373.654C1036.08 384.117 1008.92 413.17 1008.92 413.17L1027.32 468.422C1027.32 468.422 998.773 450.696 977.515 414.034C956.257 377.372 946.106 368.38 946.106 368.38C946.106 368.38 962.244 412.91 967.363 437.207C972.483 461.418 955.477 507.418 955.477 507.418L1062.46 466.001L1097.77 430.463L1143.59 376.075L1165.28 345.812L1192.78 330.248L1147.92 242.398L1199.38 298.774L1189.74 259.259L1231.05 307.161L1264.97 289.695L1205.54 194.927C1205.54 194.927 1270.61 256.405 1280.24 261.507C1289.87 266.608 1328.05 239.198 1328.05 239.198L1357.2 197.262L1267.31 147.63L1267.57 147.111ZM1214.82 250.093C1214.82 250.093 1182.89 212.048 1170.66 206.687C1158.51 201.326 1142.89 205.822 1139.25 201.066C1135.6 196.311 1120.85 172.619 1106.71 129.731C1106.71 129.731 1139.51 175.732 1145.49 184.119C1151.39 192.593 1164.15 179.363 1176.9 192.593C1189.66 205.822 1214.82 250.093 1214.82 250.093Z" fill="white" fill-opacity="0.04"/>
<path d="M347.854 705.946C414.057 661.935 453.102 603.57 488.762 556.186C524.423 508.802 591.493 408.155 600.777 398.816C610.148 389.478 708.974 328.173 708.974 328.173C708.974 328.173 678.433 409.365 674.615 450.437L736.132 338.376L784.548 256.319L656.915 325.319C656.915 325.319 621.948 367.169 609.28 372.617C596.526 378.151 588.456 385.76 581.255 397.606C574.053 409.452 483.209 503.873 483.209 503.873L347.854 705.86V705.946Z" fill="white" fill-opacity="0.04"/>
<path d="M104.042 676.029C104.042 676.029 37.2324 777.022 8.94666 787.139C-19.3391 797.342 -25.5862 814.808 -106.452 903.869L-113.567 893.925C-96.5608 869.455 -75.0428 837.722 -59.5117 812.127C-29.8377 763.014 30.0308 731.8 47.0369 716.149C58.0562 705.946 78.7065 688.912 98.2288 674.386L104.042 676.029Z" fill="white" fill-opacity="0.04"/>
<path d="M416.92 556.272C416.92 556.272 368.591 630.374 343.342 661.935C318.18 693.581 273.236 717.533 243.475 729.379C213.801 741.225 161.481 773.304 161.481 773.304C161.481 773.304 183.78 744.337 203.562 725.661C223.432 707.07 242.087 706.206 247.206 702.574C252.238 698.942 252.846 695.224 259.006 684.502C265.166 673.781 266.728 665.653 268.116 656.055C269.505 646.457 303.777 616.885 310.805 605.904C317.92 594.836 312.801 588.092 306.293 584.374C299.786 580.569 281.999 577.37 275.752 573.133C269.505 568.896 276.272 554.543 282.259 546.069C288.159 537.595 295.014 520.388 290.155 520.129C271.24 519.005 247.726 560.768 245.47 578.235C243.215 595.701 216.924 613.167 200.526 624.754C184.04 636.34 162.262 678.882 150.982 694.36C139.616 709.924 132.588 740.101 120.441 745.721C108.293 751.341 90.1594 778.146 83.9122 791.375C77.6651 804.605 71.1576 822.158 22.4819 826.654C38.7939 823.368 66.1252 800.282 70.7238 789.127C75.4092 777.973 92.8491 743.559 104.042 735.95C115.235 728.341 123.825 708.454 136.145 685.627C148.119 663.491 161.134 627.261 161.915 625.013H162.002C187.684 599.938 215.883 568.032 219.701 557.915C225.688 542.264 229.939 527.911 243.475 517.794C248.854 513.73 253.973 508.888 259.787 503.96L278.615 504.392C296.402 513.385 304.645 501.539 313.668 504.392C322.692 507.159 333.191 566.389 368.591 587.227C343.69 556.272 344.47 524.366 344.47 524.366L416.92 556.272Z" fill="white" fill-opacity="0.04"/>
<path d="M194.539 882.511C259.006 866.169 369.372 809.793 376.748 800.714C384.123 791.721 437.831 705.86 476.355 665.307C405.641 705.427 364.861 775.293 359.221 786.62C353.581 797.86 216.664 866.169 194.539 882.511Z" fill="white" fill-opacity="0.04"/>
<path d="M634.616 428.301C637.913 433.057 626.981 452.858 622.903 456.662C618.825 460.467 600.17 465.568 596.786 476.117C593.402 486.666 539.521 545.291 539.521 545.291C539.521 545.291 581.776 467.038 590.626 454.328C599.476 441.617 633.488 426.831 634.529 428.301H634.616Z" fill="white" fill-opacity="0.04"/>
<path d="M883.808 334.744C879.816 368.207 875.305 442.655 874.177 458.219C873.049 473.696 818.126 505.862 810.23 517.708C802.334 529.554 777.433 607.374 777.433 607.374C777.433 607.374 785.936 526.701 800.079 506.986C814.221 487.272 852.745 468.681 858.385 444.384C864.025 420.173 883.808 334.744 883.808 334.744Z" fill="white" fill-opacity="0.04"/>
<path d="M1256.99 442.914C1202.67 472.486 1186.27 480.7 1177.77 494.535C1169.27 508.369 1171.87 521.858 1168.4 533.618C1165.02 545.291 1153.65 568.723 1154 577.197C1154 577.197 1095.17 613.6 1066.88 665.739C1095.17 637.551 1130.22 606.509 1148.36 599.16C1166.49 591.81 1180.63 571.836 1184.89 545.291C1189.14 518.745 1187.4 509.234 1193.65 503.009C1199.9 496.783 1256.99 442.914 1256.99 442.914Z" fill="white" fill-opacity="0.04"/>
<path d="M2492.62 827.432L2485.42 850.346C2485.42 850.346 2434.23 810.312 2427.98 806.075C2421.82 801.838 2420.95 791.116 2401.43 777.887C2382.95 765.263 2362.73 745.202 2360.56 743.127C2361.95 745.635 2374.01 766.3 2390.41 787.485C2407.94 809.966 2412.45 848.357 2408.46 848.876C2404.55 849.481 2385.55 844.12 2377.05 836.771C2368.63 829.421 2337.75 774.774 2324.21 767.424C2310.59 760.075 2302.95 752.725 2278.05 718.052C2292.8 755.838 2317.7 775.293 2319.96 781.518C2322.21 787.744 2319.96 799.849 2319.96 799.849L2307.29 795.439C2308.68 797.947 2331.24 838.414 2348.76 861.327C2366.9 885.019 2367.16 869.801 2382.78 883.03C2398.31 896.26 2414.19 917.877 2414.19 917.877C2414.19 917.877 2386.42 896.26 2376.27 889.515C2366.03 882.771 2356.14 884.154 2349.11 880.177C2342 876.286 2338.35 866.429 2322.73 851.47C2307.2 836.511 2275.97 809.966 2270.68 796.65C2265.3 783.334 2239.01 753.762 2226.51 743.819C2214.02 733.875 2197.88 717.619 2197.88 717.619C2197.88 717.619 2199.35 724.104 2207.86 733.875C2216.27 743.559 2210.81 756.097 2216.1 776.417C2221.04 795.353 2241.35 814.462 2243.86 816.71C2241.17 814.635 2219.83 797.169 2215.23 792.413C2210.37 787.398 2205.08 791.376 2195.71 777.627C2186.43 763.879 2197.01 751.428 2188.77 747.018C2180.44 742.522 2171.76 719.522 2169.25 708.281C2166.64 697.04 2181.74 679.92 2173.41 668.074C2165.17 656.228 2136.1 603.224 2134.63 602.532C2133.15 601.927 2157.1 676.807 2157.1 676.807C2157.1 676.807 2150.5 687.788 2146.51 698.77C2142.44 709.751 2142.26 731.54 2142.26 731.54C2142.26 731.54 2130.81 709.146 2124.21 703.179C2117.62 697.3 2107.21 700.672 2100.01 697.905C2092.8 695.138 2043.61 653.115 2043.61 653.115C2043.61 653.115 2085.6 706.552 2094.28 712.95C2102.96 719.262 2104.52 710.01 2112.33 716.495C2120.22 723.067 2132.28 756.27 2143.91 771.315C2155.62 786.274 2148.16 797.947 2161.78 816.364C2175.32 834.782 2182.95 833.658 2192.76 842.564C2202.48 851.47 2198.49 862.884 2200.83 877.842C2203.08 892.282 2226.94 915.974 2228.77 917.79C2226.08 916.58 2184.08 896.779 2177.92 891.418C2171.5 885.884 2176.62 877.842 2166.9 869.455C2157.1 860.981 2133.32 846.974 2120.83 832.188C2108.34 817.402 2102.35 795.612 2099.83 784.631C2097.23 773.65 2090.29 771.748 2084.74 762.842C2079.27 753.935 2081.96 745.894 2077.01 740.62C2071.98 735.345 2055.93 727.304 2055.93 727.304C2055.93 727.304 2070.94 740.447 2072.41 747.191C2073.89 753.935 2071.63 759.037 2075.45 765.349C2079.27 771.748 2075.19 776.417 2073.54 783.161C2071.81 789.906 2076.67 813.425 2076.67 813.425C2076.67 813.425 2046.3 817.575 2034.06 823.714C2021.74 829.853 2005.17 849.135 2000.31 848.703C1995.45 848.271 1962.31 826.481 1959.1 827.346C1955.97 828.21 1954.85 833.485 1962.92 842.564C1970.99 851.643 1985.82 874.47 1977.58 880.004C1969.34 885.451 1949.12 912.775 1934.72 911.91C1927.52 909.23 1934.54 877.669 1934.89 870.925C1935.15 864.094 1929.51 859.598 1917.62 837.376C1905.74 815.067 1899.75 769.932 1899.75 769.932L1926.65 801.579L1963.7 780.394C1963.7 780.394 1939.14 757.567 1932.03 751.947C1925 746.24 1915.37 763.187 1906 753.33C1896.89 743.819 1879.1 700.326 1878.06 697.646C1880.14 699.894 1913.46 736.21 1915.37 738.112C1917.36 740.101 1923.26 737.247 1930.9 735.259C1938.53 733.27 1961.44 756.702 1972.2 768.03C1982.96 779.27 2033.28 805.729 2033.28 805.729C2033.28 805.729 2027.12 791.981 2012.63 776.157C1998.66 760.853 1978.88 724.191 1977.67 721.856L2012.11 747.71L2020.01 725.661C2002.48 719.176 1977.84 689.863 1969.42 682.86C1961.27 676.029 1925.61 682.86 1922.57 683.292L1959.45 648.446C1959.45 648.446 1947.3 624.495 1937.41 602.186C1938.8 602.186 2020.01 681.39 2020.01 681.39L1991.2 632.622L2023.74 603.051C2023.74 603.051 1999.1 570.366 2006.73 566.648C2014.11 563.103 2082.22 628.213 2086.38 632.19C2083.87 627.867 2036.15 548.75 2027.38 525.49C2018.88 503.009 2006.65 474.648 2005.17 471.189C2007.77 474.648 2042.05 520.561 2067.56 544.08C2041.01 502.403 2041.79 471.621 2043.26 456.749C2044.65 441.79 2054.02 423.978 2046.65 421.73C2039.27 419.482 2029.64 435.824 2001.61 448.794C1973.59 461.764 1954.41 466.26 1946.43 476.982C1938.53 487.704 1921.27 506.9 1911.12 517.881C1900.88 528.862 1902.35 534.569 1902.01 544.945C1901.75 555.062 1861.66 585.844 1859.14 587.746C1861.14 585.585 1894.63 549.96 1890.99 539.325C1887.34 528.343 1898.1 512.261 1898.1 512.261C1898.1 512.261 1844.57 542.956 1835.28 550.911C1825.91 558.78 1803.27 589.216 1798.49 607.547C1793.72 625.878 1793.98 653.547 1791.38 668.766C1788.86 683.984 1763.96 709.924 1747.3 755.059C1749.82 731.627 1762.57 696.954 1768.82 683.119C1774.98 669.284 1772.73 662.799 1772.99 650.435C1773.33 637.983 1781.23 606.164 1789.12 593.712C1797.11 581.348 1801.36 564.141 1816.63 552.554C1831.9 541.054 1887.6 507.764 1900.36 499.291C1913.11 490.817 1921.96 482.257 1930.03 472.054C1938.1 461.937 1982.26 442.914 2001.35 433.143C2020.44 423.459 2042.91 399.335 2054.37 399.335C2065.82 399.335 2121.61 474.734 2127.86 488.828C2134.02 502.922 2152.76 536.471 2162.91 555.148C2173.06 573.739 2167.42 586.103 2167.42 598.555C2167.42 611.006 2199.87 637.378 2201.87 639.021C2200.57 637.032 2179.57 605.212 2180.18 595.442C2180.7 585.239 2186.43 566.129 2174.8 546.329C2163.17 526.614 2157.27 504.911 2157.27 504.911C2157.27 504.911 2174.8 514.249 2183.82 521.858C2192.93 529.468 2189.46 550.306 2215.84 590.34C2242.13 630.374 2249.24 665.912 2259.4 675.769C2269.55 685.627 2277.53 680.871 2300.09 700.585C2322.04 719.695 2351.97 765.09 2353.8 767.857C2352.06 763.879 2323.52 699.894 2313.1 686.232C2302.43 672.138 2276.4 656.314 2274.06 639.453C2273.54 635.303 2275.27 628.731 2278.31 621.122C2300.09 629.077 2330.63 639.194 2356.75 643.95C2360.13 669.89 2381.65 689.604 2403.69 724.537C2425.73 759.556 2454.62 769.154 2491.41 825.53C2491.84 826.135 2492.28 826.827 2492.62 827.432Z" fill="white" fill-opacity="0.04"/>
<path d="M1832.77 701.796C1832.16 731.713 1834.5 761.285 1819.15 780.221C1803.87 799.071 1766.22 806.507 1761.53 814.116C1756.85 821.725 1754.33 837.549 1745.65 839.451C1752.42 826.741 1745.22 817.921 1752.42 810.052C1759.62 802.27 1807.34 788.868 1815.85 768.202C1824.35 747.45 1832.68 701.796 1832.68 701.796H1832.77Z" fill="white" fill-opacity="0.04"/>
</svg>
