<svg width="72" height="72" viewBox="0 0 72 72" fill="none" xmlns="http://www.w3.org/2000/svg">
<g id="IMAGE">
<path id="Vector" d="M2.77051 47.2217H69.4917" stroke="#81442F"/>
<path id="Vector_2" d="M3.1499 40.6613C3.1499 37.1819 5.9705 34.3613 9.4499 34.3613H62.5499C66.0293 34.3613 68.8499 37.1819 68.8499 40.6613V46.5113C68.8499 49.9907 66.0293 52.8113 62.5499 52.8113H9.4499C5.9705 52.8113 3.1499 49.9907 3.1499 46.5113V40.6613Z" stroke="#81442F"/>
<path id="Vector_3" d="M63.518 33.7211V21.45C63.518 17.4735 60.2944 14.25 56.318 14.25H15.6795C11.703 14.25 8.47949 17.4735 8.47949 21.45V33.7211" stroke="#81442F"/>
<path id="Vector_4" d="M56.2493 33.4619C56.2493 29.7339 53.2273 26.7119 49.4993 26.7119H45.8647C42.1368 26.7119 39.1147 29.7339 39.1147 33.4619" stroke="#81442F"/>
<path id="Vector_5" d="M32.8846 33.4619C32.8846 29.7341 29.8625 26.7119 26.1346 26.7119H22.5C18.772 26.7119 15.75 29.7341 15.75 33.4619" stroke="#81442F"/>
<path id="Vector_6" d="M6.40381 53.7119V54.2658C6.40381 56.2541 8.01558 57.8658 10.0038 57.8658H13.7077C15.6959 57.8658 17.3076 56.2541 17.3076 54.2658V53.7119" stroke="#81442F"/>
<path id="Vector_7" d="M54.6924 53.7119V54.2658C54.6924 56.2541 56.3041 57.8658 58.2924 57.8658H61.9962C63.9845 57.8658 65.5962 56.2541 65.5962 54.2658V53.7119" stroke="#81442F"/>
</g>
</svg>
