<svg width="72" height="72" viewBox="0 0 72 72" fill="none" xmlns="http://www.w3.org/2000/svg">
<g id="IMAGE">
<path id="Vector" d="M5.99756 52.8848C9.24425 51.2813 16.3149 46.728 18.6236 41.3408" stroke="#81442F"/>
<path id="Vector_2" d="M66.0026 52.8848C62.7557 51.2813 55.6851 46.728 53.3765 41.3408" stroke="#81442F"/>
<path id="Vector_3" d="M16.46 57.5734C17.163 56.8255 18.2592 55.5103 19.5519 53.7254M26.8013 41.2197C25.0454 45.0919 23.0803 48.4827 21.2936 51.2002" stroke="#81442F"/>
<path id="Vector_4" d="M55.5381 57.5734C55.0037 57.005 54.2423 56.1088 53.3402 54.928M45.1968 41.2197C47.4077 46.0952 49.95 50.2078 52.051 53.1737" stroke="#81442F"/>
<path id="Vector_5" d="M33.1754 41.4609C32.4139 45.8301 30.3376 55.554 28.125 59.4982" stroke="#81442F"/>
<path id="Vector_6" d="M38.7031 41.4609C38.9213 42.7123 39.2473 44.4029 39.6533 46.2709M43.7536 59.4982C42.5728 57.3935 41.4308 53.6426 40.5069 49.938" stroke="#81442F"/>
<path id="Vector_7" d="M58.0837 12.9004H13.3218C11.237 12.9004 9.54688 14.5905 9.54688 16.6753V33.0586C9.54688 35.1434 11.237 36.8335 13.3218 36.8335H58.0837C60.1686 36.8335 61.8587 35.1434 61.8587 33.0586V16.6753C61.8587 14.5905 60.1686 12.9004 58.0837 12.9004Z" stroke="#81442F"/>
<path id="Vector_8" d="M20.0669 15.3662L21.6606 16.5467C22.7341 17.3419 24.0348 17.7712 25.3708 17.7712H46.438C47.6686 17.7712 48.8718 17.4069 49.8956 16.7243L51.9327 15.3662" stroke="#81442F"/>
<path id="Vector_9" d="M8.88379 33.0439H59.1476" stroke="#81442F"/>
<path id="Vector_10" d="M54.5781 24.2656H59.1476" stroke="#81442F"/>
<path id="Vector_11" d="M54.5781 28.3545L59.1476 28.3546" stroke="#81442F"/>
</g>
</svg>
