<svg width="72" height="72" viewBox="0 0 72 72" fill="none" xmlns="http://www.w3.org/2000/svg">
<g id="IMAGE">
<path id="Vector" d="M23.8126 9.32812C16.0125 8.35311 12.8438 12.7812 12.2344 15.1172L7.72666 33.3985M23.8126 9.32812L35.6953 32.789M23.8126 9.32812L29.9063 4.14844M7.72666 33.3985L6.75 37.3594L14.9766 39.4922L15.8814 35.2265M7.72666 33.3985L15.8814 35.2265M35.6953 32.789H39.0469M35.6953 32.789V34.6172M29.9063 4.14844H41.4844M29.9063 4.14844L31.3648 8.71875M39.0469 32.789L36.8104 25.7812M39.0469 32.789V34.6172M36.8104 25.7812L35.6953 22.2874M36.8104 25.7812L47.5781 9.32812M41.4844 4.14844L47.5781 9.32812M41.4844 4.14844L40.0257 8.71875M31.3648 8.71875L35.6953 22.2874M31.3648 8.71875H40.0257M47.5781 9.32812C50.828 8.8677 57.7546 9.38091 59.461 15.1172L64.2191 33.3985M40.0257 8.71875L35.6953 22.2874M64.2191 33.3985L65.25 37.3594L56.7187 39.4922L55.8139 35.2265M64.2191 33.3985L55.8139 35.2265M50.0157 41.0157C50.5031 46.8657 53.0626 61.5312 54.2812 68.1329H39.0469M50.0157 41.0157C49.9264 39.9461 49.9174 38.7041 49.9685 37.3594M50.0157 41.0157H30.8203M39.0469 68.1329H35.6953M39.0469 68.1329V43.7578M49.9685 37.3594H21.4933M49.9685 37.3594C50.1964 31.3484 51.6231 23.2835 52.4531 19.3828L55.8139 35.2265M30.8203 41.0157H26.8594M30.8203 41.0157V46.4999M21.6797 41.0157C21.6797 45.6469 18.4297 61.0234 16.8047 68.1329H35.6953M21.6797 41.0157C21.6797 40.0594 21.6104 38.801 21.4933 37.3594M21.6797 41.0157H26.8594M35.6953 68.1329V43.7578M21.4933 37.3594C21.0433 31.819 19.8869 23.5737 19.2422 19.3828L15.8814 35.2265M26.8594 41.0157V51.9844" stroke="#81442F"/>
</g>
</svg>
