<svg width="72" height="72" viewBox="0 0 72 72" fill="none" xmlns="http://www.w3.org/2000/svg">
<path d="M1.7998 46.8004V12.6004C1.7998 8.62394 5.02335 5.40039 8.9998 5.40039H62.9998C66.9762 5.40039 70.1998 8.62394 70.1998 12.6004V46.8004C70.1998 50.7768 66.9762 54.0004 62.9998 54.0004H8.9998C5.02335 54.0004 1.7998 50.7768 1.7998 46.8004Z" stroke="#81442F" stroke-linecap="round"/>
<path d="M5.3999 46.8V12.6C5.3999 10.6118 7.01168 9 8.9999 9H62.9999C64.9882 9 66.5999 10.6118 66.5999 12.6V46.8C66.5999 48.7883 64.9882 50.4 62.9999 50.4H8.9999C7.01168 50.4 5.3999 48.7883 5.3999 46.8Z" stroke="#81442F" stroke-linecap="round"/>
<path d="M36.3745 55.0781V59.6719" stroke="#81442F" stroke-linecap="round"/>
<path d="M11.438 63.9375C15.718 62.6249 26.6802 60 36.2893 60C45.8986 60 57.4131 62.6249 61.9692 63.9375" stroke="#81442F" stroke-linecap="round"/>
</svg>
