<svg width="72" height="72" viewBox="0 0 72 72" fill="none" xmlns="http://www.w3.org/2000/svg">
<g id="IMAGE">
<path id="Vector" d="M3.32227 28.75C7.79114 23.6666 20.4575 13.5 35.3723 13.5C54.016 13.5 63.7916 23.6666 68.6794 28.75" stroke="#81442F" stroke-linecap="round"/>
<path id="Vector_2" d="M12.0376 37.464C15.3148 33.1067 24.6034 24.3926 35.5411 24.3926C49.213 24.3926 56.3819 33.1067 59.9662 37.464" stroke="#81442F" stroke-linecap="round"/>
<path id="Vector_3" d="M20.749 46.1782C22.9835 43.2735 29.3168 37.4639 36.7742 37.4639C46.0959 37.4639 50.9838 43.2735 53.4277 46.1782" stroke="#81442F" stroke-linecap="round"/>
<path id="Vector_4" d="M37.0909 58.3497C39.6018 58.3497 41.6373 56.3142 41.6373 53.8033C41.6373 51.2923 39.6018 49.2568 37.0909 49.2568C34.5799 49.2568 32.5444 51.2923 32.5444 53.8033C32.5444 56.3142 34.5799 58.3497 37.0909 58.3497Z" stroke="#81442F" stroke-linecap="round"/>
</g>
</svg>
