<svg width="72" height="72" viewBox="0 0 72 72" fill="none" xmlns="http://www.w3.org/2000/svg">
<g id="IMAGE">
<path id="Vector" d="M3.1499 20.5505C3.1499 15.0828 7.58228 10.6504 13.0499 10.6504H59.7C65.1675 10.6504 69.6 15.0828 69.6 20.5505V51.4503C69.6 56.918 65.1675 61.3503 59.7 61.3503H13.0499C7.58229 61.3503 3.1499 56.918 3.1499 51.4503V20.5505Z" stroke="#81442F"/>
<path id="Vector_2" d="M61.9999 46.8001V26.2C61.9999 22.2236 58.7765 19 54.7999 19H11.0423V23.2779H8V33.389H11.0423V41.9446H8V50.889H11.0423V54.0001H54.7999C58.7765 54.0001 61.9999 50.7765 61.9999 46.8001Z" stroke="#81442F" stroke-linecap="round"/>
<path id="Vector_3" d="M45.0004 42.6004C49.0597 42.6004 52.3504 39.3097 52.3504 35.2504C52.3504 31.1911 49.0597 27.9004 45.0004 27.9004C40.9411 27.9004 37.6504 31.1911 37.6504 35.2504C37.6504 39.3097 40.9411 42.6004 45.0004 42.6004Z" stroke="#81442F"/>
<path id="Vector_4" d="M50.6246 29.625L47.6245 33.3749" stroke="#81442F" stroke-linecap="round"/>
</g>
</svg>
