<svg width="72" height="72" viewBox="0 0 72 72" fill="none" xmlns="http://www.w3.org/2000/svg">
<g id="IMAGE">
<path id="Vector" d="M18 36L54.7481 36.0001" stroke="#81442F" stroke-linecap="round"/>
<path id="Vector_2" d="M10.6504 12.0356C10.6504 7.56204 14.2769 3.93555 18.7504 3.93555H54.0003C58.4739 3.93555 62.1003 7.56204 62.1003 12.0355V59.9642C62.1003 64.4377 58.4739 68.0642 54.0003 68.0642H18.7504C14.2769 68.0642 10.6504 64.4377 10.6504 59.9642V12.0356Z" stroke="#81442F"/>
<path id="Vector_3" d="M17.4131 16.043C17.4131 13.5577 19.4278 11.543 21.913 11.543H50.8392C53.3245 11.543 55.3392 13.5577 55.3392 16.043V55.9573C55.3392 58.4425 53.3245 60.4573 50.8392 60.4573H21.913C19.4278 60.4573 17.4131 58.4425 17.4131 55.9573V16.043Z" stroke="#81442F"/>
<path id="Vector_4" d="M33.4169 36.0003V27.1252C33.4169 24.5579 31.3355 22.4766 28.768 22.4766C26.2005 22.4766 24.1191 24.5579 24.1191 27.1252V36.0003" stroke="#81442F"/>
<path id="Vector_5" d="M33.4169 60.512V51.6371C33.4169 49.0696 31.3355 46.9883 28.768 46.9883C26.2005 46.9883 24.1191 49.0696 24.1191 51.6371V60.512" stroke="#81442F"/>
<path id="Vector_6" d="M48.6322 35.9995V27.1244C48.6322 24.5569 46.5509 22.4756 43.9833 22.4756C41.4158 22.4756 39.3345 24.5569 39.3345 27.1244V35.9995" stroke="#81442F"/>
<path id="Vector_7" d="M48.6322 60.512V51.6371C48.6322 49.0696 46.5509 46.9883 43.9833 46.9883C41.4158 46.9883 39.3345 49.0696 39.3345 51.6371V60.512" stroke="#81442F"/>
<path id="Vector_8" d="M28.7686 18.25V22.4762" stroke="#81442F" stroke-linecap="round"/>
<path id="Vector_9" d="M28.7686 42.7617V46.9879" stroke="#81442F" stroke-linecap="round"/>
<path id="Vector_10" d="M43.9824 18.25V22.4762" stroke="#81442F" stroke-linecap="round"/>
<path id="Vector_11" d="M43.9824 42.7617V46.9879" stroke="#81442F" stroke-linecap="round"/>
</g>
</svg>
