<svg width="72" height="72" viewBox="0 0 72 72" fill="none" xmlns="http://www.w3.org/2000/svg">
<g id="IMAGE">
<path id="Vector" d="M54.7891 58.8127C54.7891 57.8995 55.2401 56.0732 57.045 56.0732C58.8499 56.0732 59.4084 57.8995 59.4622 58.8127" stroke="#81442F"/>
<path id="Vector_2" d="M49.5822 53.2094L46.0371 16.3076H66.9857L63.7628 53.2094V63.6836H49.5822V53.2094Z" stroke="#81442F"/>
<path id="Vector_3" d="M46.3608 20.0137H66.6647" stroke="#81442F"/>
<path id="Vector_4" d="M50.1172 51.0771H57.2074" stroke="#81442F"/>
<path id="Vector_5" d="M50.1172 58.8125H64.2978" stroke="#81442F"/>
<path id="Vector_6" d="M59.7832 51.0771H64.2953" stroke="#81442F"/>
<path id="Vector_7" d="M8.63449 21.3034H14.2745V8.73438H8.63449M8.63449 21.3034V8.73438M8.63449 21.3034V25.8155L14.2745 39.9961V63.523H10.8905V39.9961L5.25049 25.8155V8.73438H8.63449" stroke="#81442F"/>
<path id="Vector_8" d="M44.2745 63.6832H20.4254H18.3306V39.8341V29.2575C18.3306 25.4872 21.3871 22.4307 25.1574 22.4307H37.4476C41.2179 22.4307 44.2745 25.4872 44.2745 29.2575V63.6832Z" stroke="#81442F"/>
<path id="Vector_9" d="M18.3306 30.3262H44.2745" stroke="#81442F"/>
<path id="Vector_10" d="M18.3306 53.6914H44.2745" stroke="#81442F"/>
<path id="Vector_11" d="M26.2266 22.4299V17.918H36.7009V22.4299H26.2266Z" stroke="#81442F"/>
<path id="Vector_12" d="M30.252 11.1504V17.9184M32.8303 17.9184V11.1504" stroke="#81442F"/>
<path id="Vector_13" d="M25.9033 11.1506V8.25H33.8021L39.9255 8.41114C42.8905 8.41114 42.2862 12.1174 42.5011 13.89H40.245C40.245 11.9563 38.6336 11.258 37.828 11.1506H25.9033Z" stroke="#81442F"/>
</g>
</svg>
