<svg width="72" height="72" viewBox="0 0 72 72" fill="none" xmlns="http://www.w3.org/2000/svg">
<g id="IMAGE">
<path id="Vector" d="M32.1221 28.0422C32.1221 24.161 35.2685 21.0146 39.1496 21.0146H47.2313C51.1126 21.0146 54.2588 24.161 54.2588 28.0422" stroke="#81442F"/>
<path id="Vector_2" d="M13.5 66.3425V20.1363C13.5 11.5006 20.5006 4.5 29.1362 4.5H31.0689C38.6372 4.5 44.7727 10.6354 44.7727 18.2038V21.0147" stroke="#81442F"/>
<path id="Vector_3" d="M32.1221 37.8809V63.5316" stroke="#81442F" stroke-dasharray="6 6"/>
<path id="Vector_4" d="M37.7438 38.2324L37.7437 67.0454" stroke="#81442F" stroke-dasharray="6 6"/>
<path id="Vector_5" d="M48.9883 38.2324V67.0454" stroke="#81442F" stroke-dasharray="6 6"/>
<path id="Vector_6" d="M43.3672 38.2324V63.5316" stroke="#81442F" stroke-dasharray="6 6"/>
<path id="Vector_7" d="M54.6118 38.2324V63.5316" stroke="#81442F" stroke-dasharray="6 6"/>
<path id="Vector_8" d="M40.5562 21.0142V19.9601C40.5562 13.9442 35.6792 9.06738 29.6635 9.06738C23.6475 9.06738 18.7706 13.9442 18.7706 19.9601V66.3419H13.5" stroke="#81442F"/>
<path id="Vector_9" d="M29.5083 31.5564C29.5083 30.307 30.5212 29.2939 31.7705 29.2939H54.9616C56.2111 29.2939 57.224 30.307 57.224 31.5564C57.224 32.8059 56.2111 33.8188 54.9616 33.8188H31.7705C30.5212 33.8188 29.5083 32.8059 29.5083 31.5564Z" stroke="#81442F"/>
</g>
</svg>
