<svg width="72" height="72" viewBox="0 0 72 72" fill="none" xmlns="http://www.w3.org/2000/svg">
<g id="IMAGE">
<path id="Vector" d="M16.7639 29.7829C16.741 29.1934 16.7583 28.6584 16.7901 28.2773C17.4232 28.2773 18.1556 28.3483 18.9188 28.4615C22.6301 29.0121 26.3701 29.5381 30.1204 29.4347C42.0731 29.1057 54.1733 30.674 57.7293 30.9282C61.8528 31.2227 66.5652 28.8665 67.4486 30.0446C67.5131 30.1304 67.56 30.2233 67.5915 30.3221C68.3112 32.5725 66.3157 34.9777 66.194 37.3373C65.9359 42.3411 63.7935 46.7063 64.5035 48.5995C65.3871 50.9557 64.7979 55.9628 65.0924 58.0243C65.3871 60.086 67.4486 60.9697 66.2705 63.3259C65.0924 65.6821 56.5512 62.4422 54.195 61.8531C51.8388 61.2641 42.414 62.7367 38.8797 62.7367C35.3454 62.7367 28.866 62.1478 26.5098 61.8531C24.1536 61.5586 16.2012 64.504 15.6121 63.3259C15.0231 62.1478 15.9066 60.086 16.7902 58.9079C17.6738 57.7298 17.0847 52.1338 17.0847 48.8942C17.0847 45.6544 17.9683 42.4145 18.2629 41.2364C18.5574 40.0583 17.3793 37.9966 17.3793 37.1132C17.3793 37.0631 17.3803 37.0061 17.3821 36.9429C17.451 34.5912 16.8552 32.1335 16.7639 29.7829Z" stroke="#81442F"/>
<path id="Vector_2" d="M55.3723 30.7173C54.9722 30.5148 54.585 30.2924 54.2202 30.0456C51.5086 28.2107 42.6802 21.4673 33.0424 16.2039C29.7495 14.4057 26.7934 12.0522 23.8099 9.7773C23.3565 9.43165 22.9117 9.12466 22.4979 8.88574C22.315 9.14915 22.0833 9.51896 21.852 9.94508C20.7607 11.9566 20.0101 14.2899 18.8658 16.2719C18.4552 16.9831 18.4453 19.1901 17.6608 20.0016C16.8762 20.813 14.6593 23.0103 13.1536 25.6181C11.648 28.226 9.52148 33.0042 8.26274 33.5419C7.00398 34.0796 5.33461 35.3286 5.26126 36.5506C5.18791 37.7726 12.958 39.0976 14.7177 40.4298C15.398 40.9448 16.5537 41.7814 17.88 42.709" stroke="#81442F"/>
</g>
</svg>
