<svg width="1920" height="918" viewBox="0 0 1920 918" fill="none" xmlns="http://www.w3.org/2000/svg">
<path d="M276.935 763.532C258.54 735.084 247.781 728.599 235.374 721.25C222.966 713.9 207.609 704.908 198.845 689.689C190.082 674.471 176.46 644.554 176.46 644.554L232.077 684.847L271.295 728.513L276.935 763.446V763.532Z" fill="black" fill-opacity="0.04"/>
<path d="M20.1938 449.571C56.6355 445.507 108.435 407.029 161.796 327.566C181.232 308.976 220.276 289.434 259.321 264.791L217.847 343.908C217.847 343.908 308.257 249.573 325.61 245.423C332.465 267.818 331.597 296.524 331.597 296.524C331.597 296.524 316.326 305.949 310.773 334.656C305.307 363.363 290.817 392.589 290.817 392.589C290.817 392.589 312.075 372.269 316.76 349.442C321.359 326.615 356.238 301.194 357.019 287.705C357.887 274.13 346.434 234.787 351.553 220.001C356.585 205.216 380.359 158.696 461.486 150.223C483.524 160.772 519.185 184.031 543.393 200.979C567.514 217.926 585.821 241.964 599.357 258.047C612.979 274.13 617.23 286.84 630.766 294.449C644.388 302.058 736.013 342.265 747.032 349.442C758.138 356.619 770.372 388.785 783.127 402.706C795.882 416.627 814.536 415.416 816.272 422.161C817.92 428.905 841.26 456.834 848.462 481.391C855.75 505.947 861.65 526.872 885.858 533.53C910.066 540.188 949.804 594.057 956.833 607.286C915.532 581.865 886.726 581.346 873.711 564.399C860.696 547.538 846.553 524.97 843.69 506.898C840.826 488.827 820.523 441.443 782.606 429.597V476.981C782.606 476.981 752.585 374.95 741.306 362.499C729.939 350.134 625.3 310.1 625.3 310.1C625.3 310.1 648.9 361.807 705.645 387.315C624.692 369.33 623.044 345.638 610.029 314.596C597.014 283.554 596.407 280.182 580.528 268.942C564.737 257.614 569.249 240.753 559.097 231.674C548.859 222.682 494.023 183.167 473.633 177.546L477.537 200.979C477.537 200.979 461.139 209.712 458.883 217.062C456.627 224.411 451.508 233.923 434.588 246.374C418.103 258.393 404.914 329.987 404.133 334.397L440.228 269.46L454.371 289.261L474.674 237.122C473.546 243.434 454.891 345.119 446.041 361.115C448.124 358.262 464.349 335.521 469.121 334.656C474.153 333.792 475.281 348.405 481.008 349.01C486.648 349.529 494.543 339.412 496.799 315.72C498.968 292.979 519.879 274.475 521.614 272.919C520.92 274.908 508.166 308.457 509.294 328.171C510.422 348.405 513.805 355.754 510.422 364.228C507.038 372.702 494.023 368.724 491.16 378.322C488.383 387.661 442.657 540.274 439.794 549.872C443.438 543.56 484.565 471.36 488.904 471.36C493.242 471.36 513.198 502.402 513.198 508.628C513.198 514.853 496.799 519.263 496.279 529.985C495.671 540.707 503.046 563.275 503.046 576.245C503.046 589.215 477.537 649.569 475.976 653.373C478.318 650.26 509.033 608.151 518.317 572.872C527.948 536.211 544.347 527.218 544.954 509.752C545.475 492.199 547.21 486.06 557.969 468.507C568.642 451.041 576.537 436.947 576.537 422.334C585.127 450.522 569.249 478.105 567.514 489.432C565.865 500.673 582.698 512 576.537 529.985C570.377 548.056 561.353 536.47 555.106 566.82C548.859 597.083 560.225 615.76 558.49 647.839C556.755 680.005 549.466 718.396 521.701 735.862L503.654 785.408C504.955 783.16 526.039 747.622 536.972 744.855C548.338 742.088 571.418 732.49 576.537 713.813C581.656 695.223 591.287 665.392 606.558 645.072C589.639 703.697 598.663 733.614 591.895 749.956C585.127 766.299 564.13 762.927 564.13 762.927C564.13 762.927 566.993 793.968 556.234 806.333C545.475 818.698 539.835 817.573 539.835 817.573C539.835 817.573 548.338 836.25 535.323 861.585C522.309 887.006 516.061 916.838 516.061 916.838C516.061 916.838 513.805 878.533 501.918 866.081C490.032 853.717 465.65 836.769 457.234 807.457C448.731 778.145 451.508 769.152 461.746 765.693C471.898 762.321 482.656 732.49 482.136 706.55C465.13 749.351 449.252 758.949 428.341 766.818L438.493 867.811C438.493 867.811 422.094 836.25 407.43 815.931C392.68 795.611 392.16 783.246 377.409 778.145C362.746 773.043 349.731 766.299 349.731 766.299C349.731 766.299 342.356 788.867 328.213 789.385C328.213 789.385 304.005 791.115 302.791 789.126C301.663 787.137 296.283 777.107 296.283 777.107C296.283 777.107 311.814 749.351 312.942 713.295C314.07 677.238 297.064 663.663 333.853 618.008C304.96 629.249 290.296 668.764 289.689 689.603C289.168 710.441 274.678 727.907 274.678 727.907L237.89 689.603C237.89 689.603 262.531 662.539 273.29 628.73C283.529 596.478 291.164 569.587 291.858 566.993C289.949 570.278 259.234 623.456 244.397 635.993C229.126 648.963 216.372 643.17 202.923 661.328L189.648 650.433C189.648 650.433 221.838 557.654 220.103 557.654C218.367 557.654 165.787 603.828 165.787 603.828C165.787 603.828 155.896 552.466 126.048 535.865C96.1141 519.263 18.6321 458.131 18.6321 458.131L20.1938 449.571ZM393.808 426.225C396.585 416.108 414.979 387.055 405.695 367.86C408.211 381.694 387.561 415.503 380.793 423.112C374.026 430.721 397.192 460.293 396.671 467.902C396.151 475.511 368.646 538.372 368.646 538.372C368.646 538.372 420.445 486.751 418.97 472.139C417.582 457.439 390.945 436.341 393.808 426.138V426.225ZM399.014 707.588C402.832 727.908 401.53 763.445 401.53 763.445C401.53 763.445 425.738 723.238 412.116 694.531C398.494 665.738 390.858 658.129 390.511 647.407C390.077 636.598 415.933 569.414 415.586 531.282C403.266 568.463 353.202 654.757 353.202 654.757C353.202 654.757 395.196 687.355 399.014 707.588ZM362.052 406.424C362.052 395.01 351.033 356.1 353.115 339.153C347.215 361.115 345.479 396.653 343.744 404.695C342.009 412.736 313.203 454.154 312.335 499.462C327.172 461.849 361.965 417.837 361.965 406.424H362.052ZM231.295 492.718L241.447 499.462L283.442 412.736L241.013 465.567H216.372C216.372 465.567 198.585 544.684 198.585 545.895C198.585 547.105 231.295 492.631 231.295 492.631V492.718ZM178.629 419.307C180.711 417.405 186.698 423.717 198.585 422.074C210.472 420.345 241.881 363.277 243.182 362.845C243.182 362.845 198.585 400.89 195.201 401.755C191.817 402.619 177.414 399.679 173.596 400.458C169.778 401.322 132.816 465.135 132.816 465.135C132.816 465.135 176.546 421.123 178.629 419.221V419.307ZM86.9169 476.203C93.6846 481.304 117.025 458.823 138.716 423.717C125.528 433.056 80.1491 471.101 86.9169 476.203Z" fill="black" fill-opacity="0.04"/>
<path d="M1174.44 693.321C1120.13 678.968 1052.54 649.05 1041.17 637.204C1029.89 625.358 1009.07 587.572 985.552 571.23C962.038 554.888 885.25 520.128 885.25 520.128L878.222 494.534C878.222 494.534 955.357 537.941 985.552 552.64C1015.75 567.339 1044.03 614.637 1059.3 628.212C1074.57 641.787 1174.44 693.321 1174.44 693.321Z" fill="black" fill-opacity="0.04"/>
<path d="M666.426 147.11C666.426 147.11 668.162 179.881 650.288 216.197C683.432 179.362 700.178 116.241 700.178 116.241L769.157 47.5003C769.157 47.5003 769.331 122.899 748.767 158.697C788.246 115.117 780.176 86.4104 781.044 73.6998C781.912 60.9892 817.139 26.7483 817.139 26.7483C817.139 26.7483 808.636 60.9892 800.566 72.8351C819.221 45.771 853.06 -6.45497 897.744 0.894716C905.38 2.19172 897.744 19.0528 891.41 25.8836C885.077 32.628 877.007 41.5341 876.14 53.3801C875.272 65.226 860.001 89.3503 860.001 89.3503C860.001 89.3503 878.656 72.4028 885.424 58.914C892.191 45.3387 907.896 26.7483 913.883 30.5528C919.783 34.3574 959.695 62.7185 972.016 67.3877C984.337 72.0569 1048.37 122.813 1048.37 122.813C1048.37 122.813 1107.8 230.205 1109.45 246.288C1111.19 262.37 1153.62 310.187 1165.94 327.912C1178.26 345.638 1193.1 389.217 1202.47 412.477C1211.84 435.736 1265.29 524.106 1265.29 524.106L1223.72 479.316C1223.72 479.316 1214.01 492.891 1209.75 500.5C1205.5 508.109 1233.53 563.88 1256 584.459C1278.47 605.039 1394.57 669.283 1394.57 669.283C1333.22 646.888 1253.48 617.23 1239.43 599.505C1225.46 581.779 1185.55 510.271 1185.55 497.993C1185.55 485.714 1206.46 480.267 1207.93 464.962C1209.32 449.744 1190.15 441.876 1188.41 422.939C1186.68 404.09 1149.63 317.19 1112.32 281.134C1106.68 307.074 1110.32 366.563 1110.32 366.563C1110.32 366.563 1081.17 274.649 1080.3 213.776C1031.54 145.294 1014.53 147.37 997.091 123.245C979.651 99.121 962.298 96.1812 945.726 85.1999C929.154 74.2186 913.015 66.6095 900.781 70.8464C888.547 75.0833 876.14 90.7338 877.441 107.681C878.743 124.629 856.183 182.562 856.183 182.562C856.183 182.562 875.446 156.881 881.953 144.516C888.46 132.151 892.712 140.279 899.48 146.764C906.248 153.249 919.002 165.614 925.249 165.095C931.496 164.49 945.032 127.309 949.891 127.915C954.663 128.52 949.63 165.96 943.123 176.682C936.616 187.404 924.729 203.487 926.724 214.468C928.72 225.449 913.449 272.228 913.449 272.228C913.449 272.228 937.483 239.543 943.73 220.088C943.73 220.088 955.617 237.814 959.609 238.16C963.6 238.506 988.762 190.776 988.762 190.776C988.762 190.776 987.894 226.833 986.506 237.9C985.118 248.882 974.359 254.848 972.884 258.22C971.409 261.592 976.875 285.284 971.496 296.871C966.116 308.457 950.585 343.13 950.585 343.13L942.689 283.641C942.689 283.641 889.762 281.912 881.606 290.386C873.363 298.859 882.734 318.314 873.363 337.77C863.992 357.225 841.607 404.608 854.969 409.71C869.112 415.071 872.235 402.966 886.638 373.653C897.918 384.116 925.076 413.169 925.076 413.169L906.681 468.421C906.681 468.421 935.227 450.695 956.485 414.033C977.743 377.371 987.894 368.379 987.894 368.379C987.894 368.379 971.756 412.909 966.637 437.206C961.517 461.417 978.523 507.417 978.523 507.417L871.541 466L836.227 430.462L790.415 376.074L768.723 345.811L741.219 330.247L786.077 242.397L734.624 298.773L744.255 259.258L702.955 307.16L669.029 289.694L728.464 194.926C728.464 194.926 663.389 256.404 653.758 261.506C644.127 266.607 605.95 239.197 605.95 239.197L576.797 197.261L666.687 147.629L666.426 147.11ZM719.18 250.092C719.18 250.092 751.11 212.047 763.344 206.686C775.491 201.325 791.109 205.821 794.753 201.065C798.397 196.31 813.148 172.618 827.29 129.73C827.29 129.73 794.493 175.731 788.506 184.118C782.606 192.592 769.851 179.362 757.097 192.592C744.342 205.821 719.18 250.092 719.18 250.092Z" fill="black" fill-opacity="0.04"/>
<path d="M1586.15 705.946C1519.94 661.934 1480.9 603.569 1445.24 556.185C1409.58 508.802 1342.51 408.154 1333.22 398.816C1323.85 389.477 1225.03 328.172 1225.03 328.172C1225.03 328.172 1255.57 409.365 1259.38 450.436L1197.87 338.375L1149.45 256.318L1277.09 325.319C1277.09 325.319 1312.05 367.169 1324.72 372.616C1337.47 378.15 1345.54 385.759 1352.75 397.605C1359.95 409.451 1450.79 503.873 1450.79 503.873L1586.15 705.859V705.946Z" fill="black" fill-opacity="0.04"/>
<path d="M1829.96 676.028C1829.96 676.028 1896.77 777.021 1925.05 787.138C1953.34 797.341 1959.59 814.807 2040.45 903.868L2047.57 893.924C2030.56 869.454 2009.04 837.721 1993.51 812.126C1963.84 763.013 1903.97 731.799 1886.96 716.148C1875.94 705.945 1855.29 688.911 1835.77 674.385L1829.96 676.028Z" fill="black" fill-opacity="0.04"/>
<path d="M1517.08 556.271C1517.08 556.271 1565.41 630.373 1590.66 661.934C1615.82 693.58 1660.76 717.532 1690.53 729.378C1720.2 741.224 1772.52 773.303 1772.52 773.303C1772.52 773.303 1750.22 744.337 1730.44 725.66C1710.57 707.069 1691.91 706.205 1686.79 702.573C1681.76 698.941 1681.15 695.223 1674.99 684.501C1668.83 673.78 1667.27 665.652 1665.88 656.054C1664.5 646.456 1630.22 616.884 1623.2 605.903C1616.08 594.835 1621.2 588.091 1627.71 584.373C1634.21 580.568 1652 577.369 1658.25 573.132C1664.5 568.895 1657.73 554.542 1651.74 546.068C1645.84 537.594 1638.99 520.387 1643.85 520.128C1662.76 519.004 1686.27 560.767 1688.53 578.234C1690.79 595.7 1717.08 613.166 1733.47 624.753C1749.96 636.339 1771.74 678.881 1783.02 694.359C1794.38 709.923 1801.41 740.1 1813.56 745.72C1825.71 751.34 1843.84 778.145 1850.09 791.374C1856.34 804.604 1862.84 822.157 1911.52 826.653C1895.21 823.367 1867.88 800.281 1863.28 789.126C1858.59 777.972 1841.15 743.558 1829.96 735.949C1818.77 728.34 1810.18 708.453 1797.86 685.626C1785.88 663.49 1772.87 627.26 1772.09 625.012H1772C1746.32 599.937 1718.12 568.031 1714.3 557.914C1708.31 542.264 1704.06 527.91 1690.53 517.793C1685.15 513.729 1680.03 508.887 1674.21 503.959L1655.39 504.391C1637.6 513.384 1629.36 501.538 1620.33 504.391C1611.31 507.158 1600.81 566.388 1565.41 587.226C1590.31 556.271 1589.53 524.365 1589.53 524.365L1517.08 556.271Z" fill="black" fill-opacity="0.04"/>
<path d="M1739.46 882.51C1674.99 866.168 1564.63 809.792 1557.25 800.713C1549.88 791.72 1496.17 705.859 1457.65 665.306C1528.36 705.426 1569.14 775.292 1574.78 786.619C1580.42 797.859 1717.34 866.168 1739.46 882.51Z" fill="black" fill-opacity="0.04"/>
<path d="M1299.38 428.301C1296.09 433.056 1307.02 452.857 1311.1 456.662C1315.18 460.466 1333.83 465.568 1337.21 476.117C1340.6 486.666 1394.48 545.29 1394.48 545.29C1394.48 545.29 1352.22 467.038 1343.37 454.327C1334.52 441.617 1300.51 426.831 1299.47 428.301H1299.38Z" fill="black" fill-opacity="0.04"/>
<path d="M1050.19 334.743C1054.18 368.206 1058.7 442.654 1059.82 458.218C1060.95 473.695 1115.88 505.861 1123.77 517.707C1131.67 529.553 1156.57 607.373 1156.57 607.373C1156.57 607.373 1148.07 526.7 1133.92 506.985C1119.78 487.271 1081.26 468.68 1075.62 444.383C1069.98 420.172 1050.19 334.743 1050.19 334.743Z" fill="black" fill-opacity="0.04"/>
<path d="M677.012 442.913C731.328 472.485 747.726 480.699 756.229 494.534C764.732 508.368 762.129 521.857 765.6 533.617C768.984 545.29 780.35 568.722 780.003 577.196C780.003 577.196 838.831 613.599 867.116 665.738C838.831 637.55 803.777 606.508 785.643 599.159C767.509 591.809 753.366 571.835 749.115 545.29C744.863 518.745 746.598 509.233 740.351 503.008C734.104 496.782 677.012 442.913 677.012 442.913Z" fill="black" fill-opacity="0.04"/>
<path d="M-558.622 827.431L-551.42 850.345C-551.42 850.345 -500.228 810.311 -493.981 806.074C-487.821 801.837 -486.953 791.115 -467.431 777.886C-448.95 765.262 -428.733 745.201 -426.564 743.126C-427.952 745.634 -440.013 766.299 -456.412 787.484C-473.938 809.965 -478.45 848.356 -474.459 848.875C-470.554 849.48 -451.553 844.119 -443.05 836.77C-434.633 829.42 -403.745 774.773 -390.209 767.423C-376.587 760.074 -368.951 752.724 -344.05 718.051C-358.8 755.837 -383.702 775.292 -385.958 781.517C-388.214 787.743 -385.958 799.848 -385.958 799.848L-373.29 795.439C-374.678 797.946 -397.237 838.413 -414.764 861.326C-432.898 885.018 -433.158 869.8 -448.776 883.029C-464.307 896.259 -480.185 917.876 -480.185 917.876C-480.185 917.876 -452.42 896.259 -442.269 889.514C-432.03 882.77 -422.139 884.154 -415.111 880.176C-407.996 876.285 -404.352 866.428 -388.734 851.469C-373.203 836.51 -341.967 809.965 -336.675 796.649C-331.295 783.333 -305.005 753.761 -292.511 743.818C-280.016 733.874 -263.878 717.618 -263.878 717.618C-263.878 717.618 -265.353 724.103 -273.856 733.874C-282.272 743.558 -276.806 756.096 -282.099 776.416C-287.044 795.352 -307.348 814.461 -309.864 816.709C-307.174 814.634 -285.83 797.168 -281.231 792.412C-276.372 787.397 -271.079 791.375 -261.709 777.626C-252.425 763.878 -263.01 751.427 -254.768 747.017C-246.438 742.521 -237.761 719.521 -235.245 708.28C-232.642 697.039 -247.739 679.919 -239.41 668.073C-231.167 656.227 -202.1 603.223 -200.625 602.531C-199.15 601.926 -223.098 676.806 -223.098 676.806C-223.098 676.806 -216.504 687.787 -212.513 698.769C-208.435 709.75 -208.261 731.54 -208.261 731.54C-208.261 731.54 -196.808 709.145 -190.214 703.178C-183.619 697.299 -173.207 700.671 -166.006 697.904C-158.804 695.137 -109.608 653.114 -109.608 653.114C-109.608 653.114 -151.603 706.551 -160.279 712.949C-168.956 719.261 -170.518 710.009 -178.327 716.494C-186.222 723.066 -198.283 756.269 -209.909 771.314C-221.623 786.273 -214.161 797.946 -227.783 816.363C-241.319 834.781 -248.954 833.657 -258.759 842.563C-268.477 851.469 -264.485 862.883 -266.828 877.841C-269.084 892.281 -292.944 915.973 -294.767 917.789C-292.077 916.579 -250.082 896.778 -243.922 891.417C-237.501 885.883 -242.62 877.841 -232.902 869.454C-223.098 860.98 -199.324 846.973 -186.83 832.187C-174.335 817.401 -168.349 795.611 -165.832 784.63C-163.229 773.649 -156.288 771.747 -150.735 762.841C-145.269 753.934 -147.959 745.893 -143.013 740.619C-137.981 735.344 -121.929 727.303 -121.929 727.303C-121.929 727.303 -136.939 740.446 -138.414 747.19C-139.889 753.934 -137.634 759.036 -141.451 765.348C-145.269 771.747 -141.191 776.416 -139.542 783.16C-137.807 789.905 -142.666 813.424 -142.666 813.424C-142.666 813.424 -112.298 817.574 -100.064 823.713C-87.7429 829.852 -71.1706 849.134 -66.3117 848.702C-61.4528 848.27 -28.3082 826.48 -25.0979 827.345C-21.9743 828.209 -20.8464 833.484 -28.9156 842.563C-36.9848 851.642 -51.8219 874.469 -43.5791 880.003C-35.3363 885.45 -15.1198 912.774 -0.716675 911.909C6.48489 909.229 -0.543182 877.668 -0.890244 870.924C-1.15054 864.093 4.48929 859.597 16.3762 837.375C28.2632 815.066 34.25 769.931 34.25 769.931L7.35249 801.578L-29.6966 780.393C-29.6966 780.393 -5.14175 757.566 1.97305 751.946C9.0011 746.239 18.6321 763.186 28.0028 753.329C37.1133 743.818 54.9003 700.325 55.9415 697.645C53.8591 699.893 20.541 736.209 18.6321 738.111C16.6365 740.1 10.7365 737.246 3.10104 735.258C-4.53436 733.269 -27.4407 756.701 -38.1996 768.029C-48.9586 779.269 -99.2828 805.728 -99.2828 805.728C-99.2828 805.728 -93.1225 791.98 -78.6326 776.156C-64.6633 760.852 -44.8805 724.19 -43.6658 721.855L-78.1119 747.709L-86.0077 725.66C-68.4809 719.175 -43.8394 689.863 -35.4231 682.859C-27.2671 676.028 8.39371 682.859 11.4305 683.291L-25.445 648.445C-25.445 648.445 -13.2977 624.494 -3.4064 602.185C-4.79465 602.185 -86.0077 681.389 -86.0077 681.389L-57.2014 632.621L-89.7386 603.05C-89.7386 603.05 -65.0971 570.365 -72.7325 566.647C-80.1076 563.102 -148.219 628.212 -152.384 632.189C-149.867 627.866 -102.146 548.749 -93.3828 525.489C-84.8797 503.008 -72.6458 474.647 -71.1707 471.188C-73.7737 474.647 -108.046 520.56 -133.555 544.079C-107.005 502.402 -107.786 471.62 -109.261 456.748C-110.649 441.789 -120.02 423.977 -112.645 421.729C-105.27 419.481 -95.6387 435.823 -67.6133 448.793C-39.5879 461.763 -20.4126 466.259 -12.4301 476.981C-4.53442 487.703 12.7321 506.899 22.8837 517.88C33.1221 528.861 31.6469 534.568 31.994 544.944C32.2543 555.061 72.3402 585.843 74.8564 587.745C72.8608 585.584 39.3691 549.959 43.0133 539.324C46.6575 528.342 35.8986 512.26 35.8986 512.26C35.8986 512.26 89.4331 542.955 98.7171 550.91C108.088 558.779 130.734 589.215 135.506 607.546C140.278 625.877 140.018 653.546 142.621 668.765C145.137 683.983 170.039 709.923 186.698 755.059C184.182 731.626 171.427 696.953 165.18 683.118C159.019 669.283 161.275 662.798 161.015 650.434C160.668 637.982 152.772 606.163 144.877 593.711C136.894 581.347 132.643 564.14 117.372 552.553C102.101 541.053 46.3972 507.763 33.6426 499.29C20.888 490.816 12.0379 482.256 3.96863 472.053C-4.1006 461.936 -48.2645 442.913 -67.353 433.143C-86.4415 423.458 -108.914 399.334 -120.367 399.334C-131.82 399.334 -187.611 474.733 -193.858 488.827C-200.018 502.921 -218.76 536.47 -228.911 555.147C-239.063 573.738 -233.423 586.102 -233.423 598.554C-233.423 611.005 -265.873 637.377 -267.869 639.02C-266.568 637.031 -245.57 605.212 -246.178 595.441C-246.698 585.238 -252.425 566.128 -240.798 546.328C-229.171 526.613 -223.271 504.91 -223.271 504.91C-223.271 504.91 -240.798 514.248 -249.822 521.857C-258.932 529.467 -255.462 550.305 -281.839 590.339C-308.129 630.373 -315.243 665.911 -325.395 675.768C-335.547 685.626 -343.529 680.87 -366.088 700.584C-388.04 719.694 -417.974 765.089 -419.796 767.856C-418.061 763.878 -389.515 699.893 -379.103 686.231C-368.431 672.137 -342.401 656.313 -340.058 639.452C-339.538 635.302 -341.273 628.73 -344.31 621.121C-366.088 629.076 -396.63 639.193 -422.746 643.949C-426.13 669.889 -447.648 689.603 -469.687 724.536C-491.725 759.555 -520.619 769.153 -557.407 825.529C-557.841 826.134 -558.275 826.826 -558.622 827.431Z" fill="black" fill-opacity="0.04"/>
<path d="M101.233 701.795C101.84 731.712 99.4973 761.284 114.855 780.22C130.126 799.07 167.782 806.506 172.468 814.115C177.153 821.724 179.669 837.548 188.346 839.45C181.578 826.74 188.78 817.92 181.578 810.051C174.376 802.269 126.655 788.867 118.152 768.201C109.649 747.449 101.319 701.795 101.319 701.795H101.233Z" fill="black" fill-opacity="0.04"/>
</svg>
