<svg width="1920" height="1353" viewBox="0 0 1920 1353" fill="none" xmlns="http://www.w3.org/2000/svg">
<path d="M1328.6 189.438C1319.12 183.898 1314.15 184.442 1302.11 174.217C1290.08 163.992 1279.41 157.08 1269.32 147.139C1259.25 137.199 1253.86 127.673 1247.67 131.4C1241.49 135.128 1236.36 144.447 1236.36 144.447L1214.25 182.501V185.659L1230.95 166.399C1230.95 166.399 1224.79 181.439 1220.26 187.471C1215.76 193.476 1207.32 204.012 1207.32 204.012C1207.32 204.012 1223.11 196.117 1227.17 189.464C1231.24 182.811 1236.8 176.935 1236.8 176.935C1236.8 176.935 1232.12 188.972 1229.58 191.82L1234.94 190.422C1234.94 190.422 1231.06 195.211 1230.59 198.214C1242.26 198.032 1250 202.097 1250 202.097C1250 202.097 1234.86 201.165 1217.88 208.672C1200.87 216.205 1178.01 229.588 1167.48 243.878C1175.14 229.433 1187.64 212.141 1187.64 212.141C1187.64 212.141 1174.54 221.46 1168.85 232.902C1163.13 244.344 1152.9 268.392 1152.9 268.392L1155.62 248.848L1145.4 260.885C1145.4 260.885 1143.43 273.207 1138.48 280.3C1133.54 287.393 1120.29 294.279 1116.53 300.155C1112.78 306.031 1109 312.632 1109 312.632C1109 312.632 1120.44 296.531 1129.3 295.78C1138.17 295.029 1144.34 285.555 1146.9 281.18C1149.46 276.805 1163.44 265.674 1163.44 265.674L1149.9 284.468C1149.9 284.468 1185.11 257.235 1195.64 254.828C1183.76 263.862 1172.78 284.312 1172.78 284.312C1172.78 284.312 1201.96 260.704 1210.24 255.734C1218.53 250.763 1231.6 245.664 1237.48 245.793C1243.35 245.948 1255.52 232.255 1255.52 232.255C1255.52 232.255 1240.79 240.823 1228.13 241.134C1215.47 241.444 1209.34 240.978 1209.34 240.978C1209.34 240.978 1232.66 231.504 1240.32 231.504C1247.98 231.504 1260.33 219.311 1267.56 217.37C1274.78 215.402 1280.03 210.458 1284.41 210.458C1288.78 210.458 1295.98 192.7 1295.98 192.7C1295.98 192.7 1287.41 204.142 1284.25 205.643C1281.09 207.145 1273.9 210.536 1272.21 209.863C1271.65 209.63 1270.87 203.598 1271.02 201.501C1271.21 199.404 1276.28 196.479 1276.28 196.479C1276.28 196.479 1271.15 198.576 1267.32 199.068C1263.49 199.586 1260.1 198.887 1260.1 198.887C1260.1 198.887 1267.37 197.204 1269 195.496C1270.64 193.813 1276.23 191.147 1276.23 191.147C1276.23 191.147 1266.03 192.389 1261.45 188.17C1256.89 183.95 1250.06 175.485 1241.15 175.019C1248.19 173.155 1260.72 179.472 1262.82 179.42C1256.06 175.071 1252.2 173.259 1252.39 168.185C1252.57 163.112 1251.38 159.487 1248.5 155.993C1245.63 152.498 1246.69 147.088 1246.69 147.088L1254.69 158.53C1254.69 158.53 1251.92 149.21 1250.29 146.337C1248.66 143.464 1250.91 141.574 1247.75 139.632C1247.03 139.192 1246.79 136.241 1251.09 138.105C1255.39 139.969 1274.49 158.348 1287.36 167.538C1300.22 176.702 1313.92 187.471 1328.65 189.386L1328.6 189.438Z" fill="black" fill-opacity="0.04"/>
<path d="M1313.71 140.59L1295.2 146.337C1295.2 146.337 1308.84 140.021 1315.16 132.125C1321.48 124.23 1323.16 119.027 1325.77 113.176C1328.36 107.3 1336.83 100.311 1336.83 100.311C1336.83 100.311 1333 115.092 1330.41 117.81C1339.21 110.691 1342.37 96.8158 1346.67 89.0499C1350.96 81.258 1354.46 68.5477 1354.46 68.5477L1370.01 49.1846L1384.46 57.0282C1384.46 57.0282 1393.03 70.7222 1393.21 71.1623C1393.39 71.5764 1397.14 85.607 1402.55 89.9041C1407.94 94.2013 1411.2 98.4208 1411.2 98.4208C1399.24 97.7478 1394.27 92.0009 1389.2 83.0701C1384.12 74.1651 1380.16 65.5708 1373.17 62.542C1379.15 70.9034 1374.75 81.258 1374.75 81.258C1374.75 81.258 1373.74 74.7087 1365.17 71.5506C1369.24 78.8765 1371.39 79.446 1371.39 84.8563C1371.39 90.2665 1370.38 91.5091 1372.19 90.7325C1374 89.93 1383.35 83.0701 1383.35 83.0701C1383.35 83.0701 1374.21 95.3662 1367.09 100.776C1359.97 106.187 1346.43 123.35 1346.43 123.35L1365.51 110.044C1365.51 110.044 1358.39 121.201 1352.08 127.31C1345.76 133.394 1330.74 145.483 1330.74 145.483C1330.74 145.483 1350.6 138.597 1357.15 133.419C1363.7 128.242 1354.66 147.062 1354.66 147.062C1354.66 147.062 1370.22 144.577 1374.42 141.884C1378.58 139.166 1385.47 132.41 1385.47 132.41C1385.47 132.41 1377.81 145.146 1374.31 146.389C1370.82 147.631 1365.74 148.641 1358.75 151.566C1351.76 154.491 1331.11 159.228 1316.33 158.322C1327.15 164.535 1346.79 162.956 1346.79 162.956C1346.79 162.956 1332.01 165.208 1330.54 166.011C1329.06 166.787 1323.88 171.99 1322.64 172.43C1321.4 172.871 1312.93 164.535 1312.93 164.535C1312.93 164.535 1316.43 177.271 1321.17 179.886C1309.54 174.01 1308.07 160.031 1302.79 158.555C1297.48 157.08 1291.84 156.303 1287.33 154.155C1296.13 154.388 1313.74 140.616 1313.74 140.616L1313.71 140.59ZM1354.43 90.836C1355.21 87.2378 1359.84 81.025 1359.84 81.025C1351.84 82.7077 1352.28 85.7623 1354.43 90.836ZM1328.93 140.486C1331.65 137.432 1338.64 128.967 1340.32 119.156C1340.32 119.156 1334.91 125.576 1328.93 132.928C1322.95 140.253 1312.24 149.184 1312.24 149.184C1312.24 149.184 1326.21 143.541 1328.93 140.486Z" fill="black" fill-opacity="0.04"/>
<path d="M1229.6 306.289C1229.6 306.289 1249.18 304.167 1257.28 302.381C1265.43 300.594 1267.22 298.161 1279.7 286.15C1292.17 274.112 1301.21 262.23 1309.65 256.044C1318.06 249.883 1326.34 251.539 1332.5 238.311C1338.1 226.352 1348.17 220.527 1350.08 219.544C1348.61 220.45 1342.5 224.824 1338.69 236.784C1334.34 250.478 1326.19 257.7 1320.34 260.574C1314.49 263.421 1303.51 274.242 1296.11 299.533C1298.8 290.654 1318.65 270.359 1318.65 270.359C1318.65 270.359 1324.97 274.863 1328.28 275.769C1331.57 276.675 1345.29 276.52 1355.36 276.365C1365.43 276.209 1375.97 283.121 1394.32 280.558C1380.63 272.3 1348.73 266.579 1348.73 266.579L1425.44 262.826C1425.44 262.826 1415.81 255.914 1408.87 255.733C1401.96 255.604 1366.03 257.105 1343.89 255.733C1368.25 253.947 1392.17 248.821 1402.24 247.165C1412.31 245.534 1424.35 236.344 1435.79 225.213C1425.44 227.698 1407.34 239.502 1406.2 240.201C1406.95 239.45 1416.82 229.51 1430.85 216.955C1417.44 213.926 1402.4 214.522 1402.4 214.522C1420.29 207.299 1434.73 208.076 1443.45 209.733C1452.2 211.363 1491.29 219.492 1495.95 221.019C1500.64 222.521 1519.28 234.558 1529.35 241.314C1539.42 248.096 1553.14 255.759 1558.39 267.33C1563.65 278.927 1578.56 304.037 1578.56 304.037C1578.56 304.037 1564.27 262.826 1567.86 263.111C1585.44 264.56 1623.21 296.996 1626.73 300.025C1624.17 297.255 1602.63 274.527 1586.53 264.897C1569.37 254.672 1548.6 249.261 1541.23 243.67C1533.88 238.104 1505.89 221.123 1498.51 217.964C1491.16 214.806 1426.03 200.957 1420.13 199.326C1414.49 197.747 1386.37 205.668 1384.46 206.212C1385.6 205.668 1395.07 201.009 1409.31 194.511C1424.5 187.6 1448.42 184.959 1465.79 184.131C1482.62 183.328 1500.4 194.356 1501.47 195.029C1500.74 194.356 1491.58 185.787 1484.12 180.325C1476.41 174.605 1455.34 168.573 1450.37 168.366C1445.58 168.133 1428.52 176.08 1427.48 176.546C1428.44 175.536 1443.95 159.564 1450.44 157.079C1457.12 154.517 1479.38 158.865 1479.38 158.865L1467.04 148.64L1433.05 147.941L1470.19 139.58L1468.46 125.084C1468.46 125.084 1464.63 119.906 1462.22 117.628C1459.79 115.376 1456.5 114.936 1452.44 117.628C1454.84 112.658 1465.98 107.351 1465.98 107.351C1465.98 107.351 1465.59 97.5661 1464.4 95.987C1463.21 94.408 1457.04 87.7033 1455.39 88.247C1453.83 88.7647 1443.14 97.0484 1441.72 98.3168C1443.09 96.5565 1454.87 81.2835 1458.11 79.6785C1461.57 77.9441 1471.13 78.1512 1473.07 78.6948C1475.04 79.2125 1483.09 84.1051 1486.48 93.6572C1489.84 103.209 1496.7 109.888 1497.17 113.512C1497.61 117.11 1496.42 122.987 1493.26 125.472C1498.23 125.472 1500.04 118.845 1502.27 118.845C1504.49 118.845 1512.34 125.317 1518.52 132.979C1524.69 140.667 1540.92 157.649 1540.92 157.649L1535.66 145.482C1535.66 145.482 1548.14 158.865 1554.61 169.117C1561.06 179.368 1572.34 190.887 1572.34 190.887C1572.34 190.887 1566.05 188.79 1558.36 185.917C1550.68 183.069 1535.64 173.75 1535.64 173.75C1535.64 173.75 1550.83 192.414 1562.4 195.857C1573.97 199.326 1580.01 201.863 1589.95 212.528C1585.13 208.775 1577.6 208.024 1577.6 208.024C1577.6 208.024 1624.06 243.23 1625.88 244.11C1627.66 245.016 1632.06 244.421 1635.35 245.482C1638.66 246.517 1650.86 254.956 1677.34 273.155C1677.34 273.155 1648.29 242.324 1642.88 235.541C1637.47 228.785 1634.32 228.915 1623.18 222.754C1612.05 216.592 1593.41 200.491 1592.95 200.206C1593.08 200.206 1613.99 210.432 1613.99 210.432C1613.99 210.432 1602.71 200.646 1594.29 194.796C1585.86 188.946 1564.06 169.686 1558.47 165.026C1552.9 160.341 1540.42 142.609 1531.11 135.982C1521.76 129.355 1511.25 120.036 1506.13 115.35C1501.08 110.768 1491.53 95.2363 1491.24 94.7704C1491.97 95.1328 1503.12 101.009 1508.07 104.814C1512.96 108.542 1519.82 117.887 1520.36 118.612C1519.9 117.628 1512.57 101.837 1507.47 98.3427C1502.35 94.848 1498.26 87.2115 1498.05 86.7197C1491.65 82.0601 1479.64 73.5693 1477.18 73.0774C1473.82 72.3785 1458.47 71.9384 1454.4 74.4494C1450.6 76.7533 1432.35 97.5144 1424.87 103.261L1424.4 105.254C1424.4 105.254 1432.19 109.319 1439.52 106.393C1432.3 113.046 1421.68 110.458 1416.84 113.849C1411.98 117.214 1403.61 129.303 1395.85 138.441C1388.06 147.579 1381.84 156.277 1376.1 161.584C1370.32 166.864 1362.09 176.132 1358.03 182.215C1354.12 188.066 1343.89 194.977 1343.09 195.495C1343.84 195.158 1355.72 189.489 1360.98 184.364C1366.23 179.212 1375.63 168.159 1376.2 167.46C1375.97 168.107 1371.93 178.255 1364.71 185.037C1371.7 183.794 1388.52 173.983 1388.52 173.983C1388.52 173.983 1374.08 189.101 1358.29 197.436C1342.73 205.642 1310.73 236.266 1309.72 237.198C1310.11 236.499 1316.82 225.472 1327.43 211.053C1319.15 218.275 1299.32 238.726 1295.54 246.543C1291.78 254.387 1289.97 254.232 1281.25 264.301C1272.52 274.371 1249.64 295.909 1249.64 295.909L1269.96 264.923L1229.48 306.289H1229.6Z" fill="black" fill-opacity="0.04"/>
<path d="M1512 89.6451L1517.98 86.0987L1522.95 95.8061L1523.57 101.786C1525.25 93.787 1530.33 86.0987 1530.33 86.0987C1530.33 86.0987 1529.11 101.009 1528.54 105.85C1528 110.717 1532.17 117.706 1533.72 123.453C1535.3 129.226 1538.9 131.607 1543.87 137.095C1548.84 142.635 1558.42 148.718 1564.86 155.941C1571.1 162.93 1586.5 170.437 1587.46 170.877C1586.71 170.204 1574.36 159.435 1570.12 153.973C1576.67 156.225 1593.8 158.477 1598.72 160.005C1603.46 161.48 1613.63 170.334 1614.28 170.903C1613.76 170.204 1603.48 156.303 1599.11 155.578C1594.58 154.827 1581.51 152.86 1577.88 147.76C1574.28 142.635 1568.56 140.668 1563.44 139.321C1558.31 137.975 1554.95 134.351 1554.95 134.351C1554.95 134.351 1565.53 134.507 1577.88 131.271C1567.37 127.905 1551.12 127.672 1542.91 130.468C1546.15 124.67 1560.05 121.667 1561.47 120.89C1562.89 120.14 1569.62 108.05 1568.17 107.222C1566.75 106.394 1559.61 104.375 1554.95 104.219C1550.29 104.064 1543.38 106.005 1543.38 106.005C1553.96 95.7544 1580.08 98.8608 1585.7 100.517C1591.34 102.174 1599.16 109.397 1607.29 111.131C1615.42 112.865 1620.52 111.131 1630.54 112.917C1622.33 107.352 1613.76 107.041 1608.87 105.928C1603.98 104.789 1597.43 98.1877 1586.22 86.9788C1596.47 92.9069 1613.76 94.3306 1613.76 94.3306C1613.76 94.3306 1596.6 87.7037 1589.74 83.277C1582.9 78.8504 1573.74 75.2263 1566.05 74.8639C1558.39 74.5015 1551.84 80.8955 1551.84 80.8955C1551.84 80.8955 1555.46 73.5178 1561.31 70.6444C1567.17 67.7969 1583.63 70.049 1598.85 76.2359C1591.63 68.9877 1578.63 63.3703 1558.83 66.5285C1568.98 57.2093 1597.12 56.588 1608.69 59.6685C1603.79 55.3196 1594.55 54.3359 1590.49 52.0061C1586.42 49.6504 1586.27 39.4252 1582.31 40.0983C1578.32 40.7972 1571.46 40.7972 1566.13 44.8614C1560.95 48.7703 1553.81 54.0511 1553.34 54.3877C1553.86 53.7664 1561.96 44.033 1564.08 39.4511C1566.26 34.7139 1570.17 28.5529 1574.13 24.5405C1568.74 25.7312 1565.48 34.5586 1560.23 35.9047C1563.62 32.6429 1570.01 10.5617 1571.9 10.0181C1573.77 9.50037 1575.42 9.70746 1577.47 12.5291C1579.51 15.3507 1580.52 16.1532 1582.65 16.1532C1584.77 16.1532 1587.38 18.5089 1597.63 31.3745C1607.91 44.2401 1616.27 50.9965 1624.94 54.0511C1633.64 57.1057 1648.86 63.7586 1659.35 70.2043C1655.05 68.2887 1643.56 68.0558 1630.69 63.4221C1636.08 67.8228 1650.75 74.7086 1660.85 75.2263C1660.54 78.5398 1670.63 88.9203 1680.11 92.8292C1689.58 96.7381 1696.34 100.647 1701.93 106.238L1688.52 84.1313C1681.51 75.977 1676.41 68.8582 1667.48 63.1891C1661.52 59.4096 1650.42 56.0185 1640.55 51.9284C1639.16 51.9284 1637.71 51.8249 1636.2 51.6178C1616.58 48.8479 1606.64 37.6391 1595.12 23.1944C1613.84 40.6937 1622.43 40.3313 1622.43 40.3313C1616.17 33.3678 1604.91 19.7773 1593.49 10.3028C1588.47 10.1993 1581.53 10.4064 1575.06 6.62696C1579.25 7.22235 1584.74 3.98653 1584.74 3.98653C1580.57 1.52731 1576.56 0 1572.94 0C1565.28 0 1564.21 8.15427 1558.8 16.6451C1559.04 19.1819 1558.91 21.3046 1557.85 22.7025C1552.44 29.9249 1548.37 44.6543 1534.52 56.2515C1541.62 45.2756 1548.42 26.8444 1548.42 26.8444C1545.34 27.9316 1543.17 26.9997 1535.87 40.616C1530.9 49.8575 1521.27 63.7068 1513.55 74.3203L1511.98 89.6451H1512Z" fill="black" fill-opacity="0.04"/>
<path d="M1619.97 200.698C1651.27 177.996 1652.18 178.591 1659.24 173.181C1666.31 167.77 1677.44 158.581 1683.16 152.575C1688.88 146.569 1698.05 138.13 1698.05 138.13L1673.97 153.015C1673.97 153.015 1690.75 134.17 1702.04 125.705C1713.32 117.24 1718.16 115.557 1720.31 112.399C1722.46 109.241 1725.05 100.207 1730.02 96.7118C1734.99 93.2171 1740.92 91.198 1748.17 94.5632C1755.41 97.9544 1760.1 107.817 1764.06 112.606C1768.02 117.395 1780.63 132.772 1786.22 138.7C1791.81 144.602 1824.76 172.223 1824.76 172.223L1840.53 182.034L1843.61 186.176L1833.75 187.755C1833.75 187.755 1840.81 191.224 1846.38 193.476C1851.94 195.728 1861.57 201.009 1869.83 213.486C1878.12 225.963 1891.5 244.783 1895.69 256.51C1891.19 258.089 1887.05 257.105 1887.05 257.105C1887.05 257.105 1897.27 263.499 1903.98 265.518C1910.68 267.537 1920 275.07 1920 275.07C1905.56 268.987 1894.73 269.763 1889.53 264.69C1884.35 259.616 1880.63 259.616 1873.51 253.067C1866.39 246.517 1849.49 224.177 1834.81 221.692C1847.34 221.692 1863.7 231.633 1868.64 239.968C1873.61 248.329 1883.76 250.789 1883.76 250.789C1883.76 250.789 1872.03 230.364 1865.04 218.638C1858.05 206.911 1845.08 196.53 1840.22 194.382C1835.38 192.233 1812.13 184.001 1812.13 184.001H1826.34C1826.34 184.001 1811.22 175.769 1800.95 167.641C1790.67 159.513 1780.65 153.766 1769.81 139.218L1786.06 151.074C1786.06 151.074 1763.62 126.145 1755.93 115.661C1748.27 105.177 1739.67 94.6668 1728.75 106.756C1728.75 106.756 1734.16 105.953 1735.3 106.989C1736.44 107.998 1732.37 119.518 1724.48 127.18C1731.36 124.462 1737.01 117.602 1737.01 117.602L1739.93 130.338C1739.93 130.338 1733.72 128.759 1730.46 130.235C1727.2 131.71 1713.43 141.858 1713.76 141.625C1714.1 141.392 1727.07 133.264 1738.02 141.055C1725.62 141.055 1716.35 143.541 1694.68 158.192C1709.8 153.455 1725.49 148.485 1738.22 153.352C1750.96 158.218 1761.57 171.058 1761.57 171.058C1761.57 171.058 1746.46 160.108 1726.94 161.584C1707.42 163.059 1687.12 175.692 1687.12 175.692C1687.12 175.692 1712.93 172.559 1720 174.087C1727.07 175.588 1728.88 177.84 1742.11 182.811C1755.34 187.781 1759.71 192.13 1761.65 192.596C1763.62 193.036 1790.54 199.352 1809.65 223.892C1795.51 211.855 1768.28 200.879 1768.28 200.879C1768.28 200.879 1781.38 219.233 1782.88 232.927C1773.84 215.039 1753.7 196.064 1750.68 195.029C1747.65 193.993 1736.7 193.372 1721.79 192.026C1706.9 190.68 1696.96 189.023 1694.27 190.525C1691.55 192.026 1675.48 201.345 1675.48 201.345C1675.48 201.345 1683.6 198.627 1702.4 209.163C1685.39 207.817 1664.94 205.254 1655.91 209.603L1671.54 212.917L1646.43 218.172C1646.43 218.172 1657.87 240.745 1657.25 240.745C1656.63 240.745 1634.39 214.107 1622.95 207.04C1633.93 197.1 1648.97 193.942 1648.97 193.942C1648.97 193.942 1626.86 196.349 1619.95 200.698H1619.97ZM1672.03 176.831C1675.19 174.579 1677.78 170.074 1680.73 169.168C1671.15 170.747 1660.2 181.568 1660.2 181.568C1660.2 181.568 1668.9 179.083 1672.06 176.831H1672.03Z" fill="black" fill-opacity="0.04"/>
<path d="M1518.58 254.543C1509.1 243.929 1501.88 240.409 1491.5 237.251C1481.12 234.092 1457.95 227.181 1457.95 227.181C1457.95 227.181 1479.31 240.124 1485.18 244.784C1491.06 249.443 1515.57 276.986 1514.82 275.77C1514.07 274.579 1494.22 245.094 1494.22 245.094C1494.22 245.094 1511.07 250.064 1518.58 254.569V254.543Z" fill="black" fill-opacity="0.04"/>
<path d="M1218.03 263.861C1207.06 274.682 1189.46 286.124 1180.14 289.127C1191.42 277.84 1201.8 267.77 1218.03 263.861Z" fill="black" fill-opacity="0.04"/>
<g clip-path="url(#clip0_314_1487)">
<path d="M276.935 1170.53C258.54 1142.08 247.781 1135.6 235.374 1128.25C222.966 1120.9 207.609 1111.91 198.845 1096.69C190.082 1081.47 176.46 1051.55 176.46 1051.55L232.077 1091.85L271.295 1135.51L276.935 1170.45V1170.53Z" fill="black" fill-opacity="0.04"/>
<path d="M20.1933 856.571C56.635 852.507 108.434 814.029 161.795 734.566C181.231 715.976 220.276 696.434 259.32 671.791L217.846 750.908C217.846 750.908 308.256 656.573 325.61 652.423C332.464 674.818 331.596 703.524 331.596 703.524C331.596 703.524 316.326 712.949 310.773 741.656C305.306 770.363 290.816 799.589 290.816 799.589C290.816 799.589 312.074 779.269 316.759 756.442C321.358 733.615 356.238 708.194 357.019 694.705C357.887 681.13 346.433 641.787 351.553 627.001C356.585 612.216 380.359 565.696 461.485 557.223C483.524 567.772 519.184 591.031 543.392 607.979C567.513 624.926 585.821 648.964 599.356 665.047C612.978 681.13 617.23 693.84 630.766 701.449C644.388 709.058 736.013 749.265 747.032 756.442C758.138 763.619 770.372 795.785 783.127 809.706C795.881 823.627 814.536 822.416 816.271 829.161C817.92 835.905 841.26 863.834 848.461 888.391C855.75 912.947 861.65 933.872 885.857 940.53C910.065 947.188 949.804 1001.06 956.832 1014.29C915.531 988.865 886.725 988.346 873.71 971.399C860.695 954.538 846.552 931.97 843.689 913.898C840.826 895.827 820.523 848.443 782.606 836.597V883.981C782.606 883.981 752.585 781.95 741.305 769.499C729.939 757.134 625.299 717.1 625.299 717.1C625.299 717.1 648.9 768.807 705.644 794.315C624.692 776.33 623.043 752.638 610.028 721.596C597.014 690.554 596.406 687.182 580.528 675.942C564.737 664.614 569.248 647.753 559.097 638.674C548.858 629.682 494.022 590.167 473.632 584.546L477.537 607.979C477.537 607.979 461.138 616.712 458.882 624.062C456.626 631.411 451.507 640.923 434.588 653.374C418.102 665.393 404.914 736.987 404.133 741.397L440.227 676.46L454.37 696.261L474.673 644.122C473.546 650.434 454.891 752.119 446.041 768.115C448.123 765.262 464.348 742.521 469.12 741.656C474.153 740.792 475.281 755.405 481.007 756.01C486.647 756.529 494.543 746.412 496.799 722.72C498.968 699.979 519.879 681.475 521.614 679.919C520.92 681.908 508.165 715.457 509.293 735.171C510.421 755.405 513.805 762.754 510.421 771.228C507.037 779.702 494.022 775.724 491.159 785.322C488.383 794.661 442.657 947.274 439.794 956.872C443.438 950.56 484.565 878.36 488.903 878.36C493.241 878.36 513.198 909.402 513.198 915.628C513.198 921.853 496.799 926.263 496.278 936.985C495.671 947.707 503.046 970.275 503.046 983.245C503.046 996.215 477.537 1056.57 475.975 1060.37C478.318 1057.26 509.033 1015.15 518.317 979.872C527.948 943.211 544.347 934.218 544.954 916.752C545.475 899.199 547.21 893.06 557.969 875.507C568.641 858.041 576.537 843.947 576.537 829.334C585.127 857.522 569.248 885.105 567.513 896.432C565.865 907.673 582.697 919 576.537 936.985C570.376 955.056 561.353 943.47 555.106 973.82C548.858 1004.08 560.225 1022.76 558.489 1054.84C556.754 1087 549.466 1125.4 521.701 1142.86L503.653 1192.41C504.955 1190.16 526.039 1154.62 536.972 1151.85C548.338 1149.09 571.418 1139.49 576.537 1120.81C581.656 1102.22 591.287 1072.39 606.558 1052.07C589.638 1110.7 598.662 1140.61 591.894 1156.96C585.127 1173.3 564.129 1169.93 564.129 1169.93C564.129 1169.93 566.993 1200.97 556.234 1213.33C545.475 1225.7 539.835 1224.57 539.835 1224.57C539.835 1224.57 548.338 1243.25 535.323 1268.59C522.308 1294.01 516.061 1323.84 516.061 1323.84C516.061 1323.84 513.805 1285.53 501.918 1273.08C490.031 1260.72 465.65 1243.77 457.234 1214.46C448.731 1185.14 451.507 1176.15 461.745 1172.69C471.897 1169.32 482.656 1139.49 482.135 1113.55C465.129 1156.35 449.251 1165.95 428.341 1173.82L438.492 1274.81C438.492 1274.81 422.093 1243.25 407.43 1222.93C392.68 1202.61 392.159 1190.25 377.409 1185.14C362.745 1180.04 349.731 1173.3 349.731 1173.3C349.731 1173.3 342.355 1195.87 328.213 1196.39C328.213 1196.39 304.005 1198.11 302.79 1196.13C301.662 1194.14 296.283 1184.11 296.283 1184.11C296.283 1184.11 311.814 1156.35 312.942 1120.29C314.07 1084.24 297.064 1070.66 333.852 1025.01C304.959 1036.25 290.296 1075.76 289.689 1096.6C289.168 1117.44 274.678 1134.91 274.678 1134.91L237.889 1096.6C237.889 1096.6 262.531 1069.54 273.29 1035.73C283.528 1003.48 291.164 976.587 291.858 973.993C289.949 977.278 259.234 1030.46 244.397 1042.99C229.126 1055.96 216.371 1050.17 202.923 1068.33L189.647 1057.43C189.647 1057.43 221.838 964.654 220.102 964.654C218.367 964.654 165.787 1010.83 165.787 1010.83C165.787 1010.83 155.895 959.466 126.048 942.865C96.1136 926.263 18.6316 865.131 18.6316 865.131L20.1933 856.571ZM393.808 833.225C396.584 823.108 414.979 794.055 405.695 774.86C408.211 788.694 387.561 822.503 380.793 830.112C374.025 837.721 397.192 867.293 396.671 874.902C396.15 882.511 368.645 945.372 368.645 945.372C368.645 945.372 420.445 893.751 418.97 879.139C417.581 864.439 390.944 843.341 393.808 833.138V833.225ZM399.014 1114.59C402.831 1134.91 401.53 1170.45 401.53 1170.45C401.53 1170.45 425.738 1130.24 412.115 1101.53C398.493 1072.74 390.858 1065.13 390.511 1054.41C390.077 1043.6 415.933 976.414 415.586 938.282C403.265 975.463 353.201 1061.76 353.201 1061.76C353.201 1061.76 395.196 1094.35 399.014 1114.59ZM362.051 813.424C362.051 802.01 351.032 763.1 353.114 746.153C347.214 768.115 345.479 803.653 343.744 811.695C342.008 819.736 313.202 861.154 312.334 906.462C327.171 868.849 361.965 824.837 361.965 813.424H362.051ZM231.295 899.718L241.447 906.462L283.441 819.736L241.013 872.567H216.371C216.371 872.567 198.584 951.684 198.584 952.895C198.584 954.105 231.295 899.631 231.295 899.631V899.718ZM178.628 826.307C180.71 824.405 186.697 830.717 198.584 829.074C210.471 827.345 241.88 770.277 243.182 769.845C243.182 769.845 198.584 807.89 195.2 808.755C191.817 809.619 177.413 806.679 173.596 807.458C169.778 808.322 132.816 872.135 132.816 872.135C132.816 872.135 176.546 828.123 178.628 826.221V826.307ZM86.9164 883.203C93.6841 888.304 117.024 865.823 138.716 830.717C125.527 840.056 80.1486 878.101 86.9164 883.203Z" fill="black" fill-opacity="0.04"/>
<path d="M1174.44 1100.32C1120.13 1085.97 1052.54 1056.05 1041.17 1044.2C1029.89 1032.36 1009.07 994.572 985.552 978.23C962.038 961.888 885.25 927.128 885.25 927.128L878.222 901.534C878.222 901.534 955.357 944.941 985.552 959.64C1015.75 974.339 1044.03 1021.64 1059.3 1035.21C1074.57 1048.79 1174.44 1100.32 1174.44 1100.32Z" fill="black" fill-opacity="0.04"/>
<path d="M666.426 554.11C666.426 554.11 668.162 586.881 650.288 623.197C683.432 586.362 700.178 523.241 700.178 523.241L769.157 454.5C769.157 454.5 769.331 529.899 748.767 565.697C788.246 522.117 780.176 493.41 781.044 480.7C781.912 467.989 817.139 433.748 817.139 433.748C817.139 433.748 808.636 467.989 800.566 479.835C819.221 452.771 853.06 400.545 897.744 407.895C905.38 409.192 897.744 426.053 891.41 432.884C885.077 439.628 877.007 448.534 876.14 460.38C875.272 472.226 860.001 496.35 860.001 496.35C860.001 496.35 878.656 479.403 885.424 465.914C892.191 452.339 907.896 433.748 913.883 437.553C919.783 441.357 959.695 469.719 972.016 474.388C984.337 479.057 1048.37 529.813 1048.37 529.813C1048.37 529.813 1107.8 637.205 1109.45 653.288C1111.19 669.37 1153.62 717.187 1165.94 734.912C1178.26 752.638 1193.1 796.217 1202.47 819.477C1211.84 842.736 1265.29 931.106 1265.29 931.106L1223.72 886.316C1223.72 886.316 1214.01 899.891 1209.75 907.5C1205.5 915.109 1233.53 970.88 1256 991.459C1278.47 1012.04 1394.57 1076.28 1394.57 1076.28C1333.22 1053.89 1253.48 1024.23 1239.43 1006.5C1225.46 988.779 1185.55 917.271 1185.55 904.993C1185.55 892.714 1206.46 887.267 1207.93 871.962C1209.32 856.744 1190.15 848.876 1188.41 829.939C1186.68 811.09 1149.63 724.19 1112.32 688.134C1106.68 714.074 1110.32 773.563 1110.32 773.563C1110.32 773.563 1081.17 681.649 1080.3 620.776C1031.54 552.294 1014.53 554.37 997.091 530.245C979.651 506.121 962.298 503.181 945.726 492.2C929.154 481.219 913.015 473.61 900.781 477.846C888.547 482.083 876.14 497.734 877.441 514.681C878.743 531.629 856.183 589.562 856.183 589.562C856.183 589.562 875.446 563.881 881.953 551.516C888.46 539.151 892.712 547.279 899.48 553.764C906.248 560.249 919.002 572.614 925.249 572.095C931.496 571.49 945.032 534.309 949.891 534.915C954.663 535.52 949.63 572.96 943.123 583.682C936.616 594.404 924.729 610.487 926.724 621.468C928.72 632.449 913.449 679.228 913.449 679.228C913.449 679.228 937.483 646.543 943.73 627.088C943.73 627.088 955.617 644.814 959.609 645.16C963.6 645.506 988.762 597.776 988.762 597.776C988.762 597.776 987.894 633.833 986.506 644.9C985.118 655.882 974.359 661.848 972.884 665.22C971.409 668.592 976.875 692.284 971.496 703.871C966.116 715.457 950.585 750.13 950.585 750.13L942.689 690.641C942.689 690.641 889.762 688.912 881.606 697.386C873.363 705.859 882.734 725.314 873.363 744.77C863.992 764.225 841.607 811.608 854.969 816.71C869.112 822.071 872.235 809.966 886.638 780.653C897.918 791.116 925.076 820.169 925.076 820.169L906.681 875.421C906.681 875.421 935.227 857.695 956.485 821.033C977.743 784.371 987.894 775.379 987.894 775.379C987.894 775.379 971.756 819.909 966.637 844.206C961.517 868.417 978.523 914.417 978.523 914.417L871.541 873L836.227 837.462L790.415 783.074L768.723 752.811L741.219 737.247L786.077 649.397L734.624 705.773L744.255 666.258L702.955 714.16L669.029 696.694L728.464 601.926C728.464 601.926 663.389 663.404 653.758 668.506C644.127 673.607 605.95 646.197 605.95 646.197L576.797 604.261L666.687 554.629L666.426 554.11ZM719.18 657.092C719.18 657.092 751.11 619.047 763.344 613.686C775.491 608.325 791.109 612.821 794.753 608.065C798.397 603.31 813.148 579.618 827.29 536.73C827.29 536.73 794.493 582.731 788.506 591.118C782.606 599.592 769.851 586.362 757.097 599.592C744.342 612.821 719.18 657.092 719.18 657.092Z" fill="black" fill-opacity="0.04"/>
<path d="M1586.15 1112.95C1519.94 1068.93 1480.9 1010.57 1445.24 963.185C1409.58 915.802 1342.51 815.154 1333.22 805.816C1323.85 796.477 1225.03 735.172 1225.03 735.172C1225.03 735.172 1255.57 816.365 1259.38 857.436L1197.87 745.375L1149.45 663.318L1277.09 732.319C1277.09 732.319 1312.05 774.169 1324.72 779.616C1337.47 785.15 1345.54 792.759 1352.75 804.605C1359.95 816.451 1450.79 910.873 1450.79 910.873L1586.15 1112.86V1112.95Z" fill="black" fill-opacity="0.04"/>
<path d="M1829.96 1083.03C1829.96 1083.03 1896.77 1184.02 1925.05 1194.14C1953.34 1204.34 1959.59 1221.81 2040.45 1310.87L2047.57 1300.92C2030.56 1276.45 2009.04 1244.72 1993.51 1219.13C1963.84 1170.01 1903.97 1138.8 1886.96 1123.15C1875.94 1112.95 1855.29 1095.91 1835.77 1081.38L1829.96 1083.03Z" fill="black" fill-opacity="0.04"/>
<path d="M1517.08 963.271C1517.08 963.271 1565.41 1037.37 1590.66 1068.93C1615.82 1100.58 1660.76 1124.53 1690.53 1136.38C1720.2 1148.22 1772.52 1180.3 1772.52 1180.3C1772.52 1180.3 1750.22 1151.34 1730.44 1132.66C1710.57 1114.07 1691.91 1113.2 1686.79 1109.57C1681.76 1105.94 1681.15 1102.22 1674.99 1091.5C1668.83 1080.78 1667.27 1072.65 1665.88 1063.05C1664.5 1053.46 1630.22 1023.88 1623.2 1012.9C1616.08 1001.84 1621.2 995.091 1627.71 991.373C1634.21 987.568 1652 984.369 1658.25 980.132C1664.5 975.895 1657.73 961.542 1651.74 953.068C1645.84 944.594 1638.99 927.387 1643.85 927.128C1662.76 926.004 1686.27 967.767 1688.53 985.234C1690.79 1002.7 1717.08 1020.17 1733.47 1031.75C1749.96 1043.34 1771.74 1085.88 1783.02 1101.36C1794.38 1116.92 1801.41 1147.1 1813.56 1152.72C1825.71 1158.34 1843.84 1185.15 1850.09 1198.37C1856.34 1211.6 1862.84 1229.16 1911.52 1233.65C1895.21 1230.37 1867.88 1207.28 1863.28 1196.13C1858.59 1184.97 1841.15 1150.56 1829.96 1142.95C1818.77 1135.34 1810.18 1115.45 1797.86 1092.63C1785.88 1070.49 1772.87 1034.26 1772.09 1032.01H1772C1746.32 1006.94 1718.12 975.031 1714.3 964.914C1708.31 949.264 1704.06 934.91 1690.53 924.793C1685.15 920.729 1680.03 915.887 1674.21 910.959L1655.39 911.391C1637.6 920.384 1629.36 908.538 1620.33 911.391C1611.31 914.158 1600.81 973.388 1565.41 994.226C1590.31 963.271 1589.53 931.365 1589.53 931.365L1517.08 963.271Z" fill="black" fill-opacity="0.04"/>
<path d="M1739.46 1289.51C1674.99 1273.17 1564.63 1216.79 1557.25 1207.71C1549.88 1198.72 1496.17 1112.86 1457.65 1072.31C1528.36 1112.43 1569.14 1182.29 1574.78 1193.62C1580.42 1204.86 1717.34 1273.17 1739.46 1289.51Z" fill="black" fill-opacity="0.04"/>
<path d="M1299.38 835.301C1296.09 840.056 1307.02 859.857 1311.1 863.662C1315.18 867.466 1333.83 872.568 1337.21 883.117C1340.6 893.666 1394.48 952.29 1394.48 952.29C1394.48 952.29 1352.22 874.038 1343.37 861.327C1334.52 848.617 1300.51 833.831 1299.47 835.301H1299.38Z" fill="black" fill-opacity="0.04"/>
<path d="M1050.19 741.743C1054.18 775.206 1058.7 849.654 1059.82 865.218C1060.95 880.695 1115.88 912.861 1123.77 924.707C1131.67 936.553 1156.57 1014.37 1156.57 1014.37C1156.57 1014.37 1148.07 933.7 1133.92 913.985C1119.78 894.271 1081.26 875.68 1075.62 851.383C1069.98 827.172 1050.19 741.743 1050.19 741.743Z" fill="black" fill-opacity="0.04"/>
<path d="M677.012 849.913C731.328 879.485 747.726 887.699 756.229 901.534C764.732 915.368 762.129 928.857 765.6 940.617C768.984 952.29 780.35 975.722 780.003 984.196C780.003 984.196 838.831 1020.6 867.116 1072.74C838.831 1044.55 803.777 1013.51 785.643 1006.16C767.509 998.809 753.366 978.835 749.115 952.29C744.863 925.745 746.598 916.233 740.351 910.008C734.104 903.782 677.012 849.913 677.012 849.913Z" fill="black" fill-opacity="0.04"/>
<path d="M-558.622 1234.43L-551.421 1257.34C-551.421 1257.34 -500.229 1217.31 -493.982 1213.07C-487.821 1208.84 -486.954 1198.12 -467.431 1184.89C-448.95 1172.26 -428.734 1152.2 -426.565 1150.13C-427.953 1152.63 -440.013 1173.3 -456.412 1194.48C-473.939 1216.96 -478.451 1255.36 -474.459 1255.88C-470.555 1256.48 -451.553 1251.12 -443.05 1243.77C-434.634 1236.42 -403.745 1181.77 -390.21 1174.42C-376.587 1167.07 -368.952 1159.72 -344.05 1125.05C-358.8 1162.84 -383.702 1182.29 -385.958 1188.52C-388.214 1194.74 -385.958 1206.85 -385.958 1206.85L-373.29 1202.44C-374.679 1204.95 -397.238 1245.41 -414.765 1268.33C-432.899 1292.02 -433.159 1276.8 -448.777 1290.03C-464.308 1303.26 -480.186 1324.88 -480.186 1324.88C-480.186 1324.88 -452.421 1303.26 -442.269 1296.51C-432.031 1289.77 -422.139 1291.15 -415.111 1287.18C-407.997 1283.29 -404.353 1273.43 -388.735 1258.47C-373.204 1243.51 -341.968 1216.96 -336.675 1203.65C-331.296 1190.33 -305.005 1160.76 -292.511 1150.82C-280.017 1140.87 -263.878 1124.62 -263.878 1124.62C-263.878 1124.62 -265.353 1131.1 -273.856 1140.87C-282.273 1150.56 -276.807 1163.1 -282.099 1183.42C-287.045 1202.35 -307.348 1221.46 -309.864 1223.71C-307.174 1221.63 -285.83 1204.17 -281.232 1199.41C-276.373 1194.4 -271.08 1198.37 -261.709 1184.63C-252.425 1170.88 -263.011 1158.43 -254.768 1154.02C-246.439 1149.52 -237.762 1126.52 -235.246 1115.28C-232.643 1104.04 -247.74 1086.92 -239.41 1075.07C-231.168 1063.23 -202.101 1010.22 -200.626 1009.53C-199.151 1008.93 -223.098 1083.81 -223.098 1083.81C-223.098 1083.81 -216.504 1094.79 -212.513 1105.77C-208.435 1116.75 -208.261 1138.54 -208.261 1138.54C-208.261 1138.54 -196.808 1116.14 -190.214 1110.18C-183.62 1104.3 -173.208 1107.67 -166.006 1104.9C-158.805 1102.14 -109.608 1060.11 -109.608 1060.11C-109.608 1060.11 -151.603 1113.55 -160.28 1119.95C-168.956 1126.26 -170.518 1117.01 -178.327 1123.49C-186.223 1130.07 -198.283 1163.27 -209.91 1178.31C-221.623 1193.27 -214.161 1204.95 -227.784 1223.36C-241.319 1241.78 -248.955 1240.66 -258.759 1249.56C-268.477 1258.47 -264.486 1269.88 -266.828 1284.84C-269.084 1299.28 -292.945 1322.97 -294.767 1324.79C-292.077 1323.58 -250.083 1303.78 -243.922 1298.42C-237.502 1292.88 -242.621 1284.84 -232.903 1276.45C-223.098 1267.98 -199.324 1253.97 -186.83 1239.19C-174.336 1224.4 -168.349 1202.61 -165.833 1191.63C-163.23 1180.65 -156.289 1178.75 -150.735 1169.84C-145.269 1160.93 -147.959 1152.89 -143.013 1147.62C-137.981 1142.34 -121.929 1134.3 -121.929 1134.3C-121.929 1134.3 -136.94 1147.45 -138.415 1154.19C-139.89 1160.93 -137.634 1166.04 -141.452 1172.35C-145.269 1178.75 -141.191 1183.42 -139.543 1190.16C-137.808 1196.9 -142.666 1220.42 -142.666 1220.42C-142.666 1220.42 -112.298 1224.57 -100.064 1230.71C-87.7434 1236.85 -71.1711 1256.13 -66.3122 1255.7C-61.4533 1255.27 -28.3087 1233.48 -25.0984 1234.34C-21.9748 1235.21 -20.8469 1240.48 -28.9161 1249.56C-36.9853 1258.64 -51.8223 1281.47 -43.5796 1287C-35.3368 1292.45 -15.1203 1319.77 -0.717163 1318.91C6.48441 1316.23 -0.543671 1284.67 -0.890732 1277.92C-1.15103 1271.09 4.4888 1266.6 16.3757 1244.37C28.2627 1222.07 34.2495 1176.93 34.2495 1176.93L7.35201 1208.58L-29.6971 1187.39C-29.6971 1187.39 -5.14224 1164.57 1.97256 1158.95C9.00061 1153.24 18.6316 1170.19 28.0023 1160.33C37.1128 1150.82 54.8998 1107.33 55.941 1104.64C53.8586 1106.89 20.5405 1143.21 18.6316 1145.11C16.636 1147.1 10.736 1144.25 3.10056 1142.26C-4.53485 1140.27 -27.4411 1163.7 -38.2001 1175.03C-48.9591 1186.27 -99.2833 1212.73 -99.2833 1212.73C-99.2833 1212.73 -93.123 1198.98 -78.6331 1183.16C-64.6638 1167.85 -44.881 1131.19 -43.6663 1128.86L-78.1124 1154.71L-86.0081 1132.66C-68.4814 1126.17 -43.8399 1096.86 -35.4236 1089.86C-27.2675 1083.03 8.39322 1089.86 11.43 1090.29L-25.4455 1055.44C-25.4455 1055.44 -13.2982 1031.49 -3.40689 1009.19C-4.79514 1009.19 -86.0081 1088.39 -86.0081 1088.39L-57.2019 1039.62L-89.7391 1010.05C-89.7391 1010.05 -65.0975 977.365 -72.7329 973.647C-80.1081 970.102 -148.219 1035.21 -152.384 1039.19C-149.868 1034.87 -102.147 955.749 -93.3833 932.489C-84.8802 910.008 -72.6462 881.647 -71.1712 878.188C-73.7742 881.647 -108.047 927.56 -133.556 951.079C-107.006 909.402 -107.786 878.62 -109.261 863.748C-110.65 848.789 -120.02 830.977 -112.645 828.729C-105.27 826.481 -95.6392 842.823 -67.6138 855.793C-39.5884 868.763 -20.4131 873.259 -12.4306 883.981C-4.53491 894.703 12.7316 913.899 22.8832 924.88C33.1216 935.861 31.6465 941.568 31.9935 951.944C32.2538 962.061 72.3397 992.843 74.8559 994.745C72.8603 992.584 39.3687 956.959 43.0128 946.324C46.657 935.342 35.8981 919.26 35.8981 919.26C35.8981 919.26 89.4326 949.955 98.7166 957.91C108.087 965.779 130.733 996.215 135.505 1014.55C140.278 1032.88 140.017 1060.55 142.62 1075.76C145.136 1090.98 170.038 1116.92 186.697 1162.06C184.181 1138.63 171.426 1103.95 165.179 1090.12C159.019 1076.28 161.275 1069.8 161.015 1057.43C160.668 1044.98 152.772 1013.16 144.876 1000.71C136.894 988.347 132.642 971.14 117.371 959.553C102.101 948.053 46.3967 914.763 33.6421 906.29C20.8875 897.816 12.0374 889.256 3.96814 879.053C-4.10109 868.936 -48.265 849.913 -67.3535 840.143C-86.442 830.458 -108.914 806.334 -120.368 806.334C-131.821 806.334 -187.611 881.733 -193.858 895.827C-200.019 909.921 -218.76 943.47 -228.912 962.147C-239.063 980.738 -233.423 993.102 -233.423 1005.55C-233.423 1018 -265.874 1044.38 -267.87 1046.02C-266.568 1044.03 -245.571 1012.21 -246.178 1002.44C-246.699 992.238 -252.425 973.128 -240.799 953.328C-229.172 933.613 -223.272 911.91 -223.272 911.91C-223.272 911.91 -240.799 921.248 -249.822 928.857C-258.933 936.467 -255.462 957.305 -281.839 997.339C-308.129 1037.37 -315.244 1072.91 -325.395 1082.77C-335.547 1092.63 -343.53 1087.87 -366.089 1107.58C-388.04 1126.69 -417.975 1172.09 -419.797 1174.86C-418.062 1170.88 -389.516 1106.89 -379.104 1093.23C-368.431 1079.14 -342.402 1063.31 -340.059 1046.45C-339.538 1042.3 -341.274 1035.73 -344.31 1028.12C-366.089 1036.08 -396.63 1046.19 -422.747 1050.95C-426.131 1076.89 -447.649 1096.6 -469.687 1131.54C-491.726 1166.55 -520.619 1176.15 -557.408 1232.53C-557.842 1233.13 -558.275 1233.83 -558.622 1234.43Z" fill="black" fill-opacity="0.04"/>
<path d="M101.233 1108.79C101.84 1138.71 99.4973 1168.28 114.855 1187.22C130.126 1206.07 167.782 1213.51 172.468 1221.12C177.153 1228.72 179.669 1244.55 188.346 1246.45C181.578 1233.74 188.78 1224.92 181.578 1217.05C174.376 1209.27 126.655 1195.87 118.152 1175.2C109.649 1154.45 101.319 1108.79 101.319 1108.79H101.233Z" fill="black" fill-opacity="0.04"/>
</g>
<defs>
<clipPath id="clip0_314_1487">
<rect width="2732" height="975" fill="white" transform="matrix(-1 0 0 1 1920 377.632)"/>
</clipPath>
</defs>
</svg>
