<svg width="1920" height="919" viewBox="0 0 1920 919" fill="none" xmlns="http://www.w3.org/2000/svg">
<path d="M1665.07 763.901C1683.46 735.453 1694.22 728.968 1706.63 721.618C1719.03 714.269 1734.39 705.276 1743.16 690.058C1751.92 674.84 1765.54 644.922 1765.54 644.922L1709.92 685.216L1670.71 728.882L1665.07 763.814V763.901Z" fill="black" fill-opacity="0.04"/>
<path d="M1921.81 449.94C1885.36 445.876 1833.57 407.398 1780.2 327.935C1760.77 309.345 1721.72 289.803 1682.68 265.16L1724.15 344.277C1724.15 344.277 1633.74 249.942 1616.39 245.792C1609.54 268.186 1610.4 296.893 1610.4 296.893C1610.4 296.893 1625.67 306.318 1631.23 335.025C1636.69 363.732 1651.18 392.958 1651.18 392.958C1651.18 392.958 1629.93 372.638 1625.24 349.811C1620.64 326.984 1585.76 301.563 1584.98 288.074C1584.11 274.498 1595.57 235.156 1590.45 220.37C1585.42 205.584 1561.64 159.065 1480.51 150.592C1458.48 161.141 1422.82 184.4 1398.61 201.348C1374.49 218.295 1356.18 242.333 1342.64 258.416C1329.02 274.499 1324.77 287.209 1311.23 294.818C1297.61 302.427 1205.99 342.634 1194.97 349.811C1183.86 356.988 1171.63 389.154 1158.87 403.075C1146.12 416.996 1127.46 415.785 1125.73 422.53C1124.08 429.274 1100.74 457.203 1093.54 481.759C1086.25 506.316 1080.35 527.241 1056.14 533.899C1031.93 540.557 992.196 594.426 985.168 607.655C1026.47 582.234 1055.27 581.715 1068.29 564.768C1081.3 547.907 1095.45 525.339 1098.31 507.267C1101.17 489.196 1121.48 441.812 1159.39 429.966V477.35C1159.39 477.35 1189.42 375.319 1200.69 362.868C1212.06 350.503 1316.7 310.469 1316.7 310.469C1316.7 310.469 1293.1 362.176 1236.36 387.684C1317.31 369.698 1318.96 346.007 1331.97 314.965C1344.99 283.923 1345.59 280.551 1361.47 269.31C1377.26 257.983 1372.75 241.122 1382.9 232.043C1393.14 223.051 1447.98 183.535 1468.37 177.915L1464.46 201.348C1464.46 201.348 1480.86 210.081 1483.12 217.43C1485.37 224.78 1490.49 234.291 1507.41 246.743C1523.9 258.762 1537.09 330.356 1537.87 334.766L1501.77 269.829L1487.63 289.63L1467.33 237.491C1468.45 243.803 1487.11 345.488 1495.96 361.484C1493.88 358.631 1477.65 335.89 1472.88 335.025C1467.85 334.161 1466.72 348.773 1460.99 349.379C1455.35 349.898 1447.46 339.781 1445.2 316.089C1443.03 293.348 1422.12 274.844 1420.39 273.288C1421.08 275.277 1433.83 308.826 1432.71 328.54C1431.58 348.773 1428.2 356.123 1431.58 364.597C1434.96 373.071 1447.98 369.093 1450.84 378.691C1453.62 388.029 1499.34 540.643 1502.21 550.241C1498.56 543.929 1457.44 471.729 1453.1 471.729C1448.76 471.729 1428.8 502.771 1428.8 508.997C1428.8 515.222 1445.2 519.632 1445.72 530.354C1446.33 541.076 1438.95 563.644 1438.95 576.614C1438.95 589.584 1464.46 649.937 1466.02 653.742C1463.68 650.629 1432.97 608.52 1423.68 573.241C1414.05 536.579 1397.65 527.587 1397.05 510.121C1396.53 492.568 1394.79 486.429 1384.03 468.876C1373.36 451.41 1365.46 437.316 1365.46 422.703C1356.87 450.891 1372.75 478.474 1374.49 489.801C1376.14 501.042 1359.3 512.369 1365.46 530.354C1371.62 548.425 1380.65 536.839 1386.89 567.189C1393.14 597.452 1381.78 616.129 1383.51 648.208C1385.25 680.374 1392.53 718.765 1420.3 736.231L1438.35 785.777C1437.05 783.529 1415.96 747.991 1405.03 745.224C1393.66 742.457 1370.58 732.859 1365.46 714.182C1360.34 695.592 1350.71 665.761 1335.44 645.441C1352.36 704.066 1343.34 733.983 1350.11 750.325C1356.87 766.668 1377.87 763.295 1377.87 763.295C1377.87 763.295 1375.01 794.337 1385.77 806.702C1396.53 819.067 1402.17 817.942 1402.17 817.942C1402.17 817.942 1393.66 836.619 1406.68 861.954C1419.69 887.375 1425.94 917.206 1425.94 917.206C1425.94 917.206 1428.2 878.901 1440.08 866.45C1451.97 854.086 1476.35 837.138 1484.77 807.826C1493.27 778.514 1490.49 769.521 1480.25 766.062C1470.1 762.69 1459.34 732.859 1459.86 706.919C1476.87 749.72 1492.75 759.318 1513.66 767.186L1503.51 868.18C1503.51 868.18 1519.91 836.619 1534.57 816.3C1549.32 795.98 1549.84 783.615 1564.59 778.514C1579.25 773.412 1592.27 766.668 1592.27 766.668C1592.27 766.668 1599.64 789.235 1613.79 789.754C1613.79 789.754 1638 791.484 1639.21 789.495C1640.34 787.506 1645.72 777.476 1645.72 777.476C1645.72 777.476 1630.19 749.72 1629.06 713.663C1627.93 677.607 1644.94 664.032 1608.15 618.377C1637.04 629.618 1651.7 669.133 1652.31 689.972C1652.83 710.81 1667.32 728.276 1667.32 728.276L1704.11 689.972C1704.11 689.972 1679.47 662.907 1668.71 629.099C1658.47 596.847 1650.84 569.956 1650.14 567.362C1652.05 570.647 1682.77 623.824 1697.6 636.362C1712.87 649.332 1725.63 643.539 1739.08 661.697L1752.35 650.802C1752.35 650.802 1720.16 558.023 1721.9 558.023C1723.63 558.023 1776.21 604.197 1776.21 604.197C1776.21 604.197 1786.1 552.835 1815.95 536.234C1845.89 519.632 1923.37 458.5 1923.37 458.5L1921.81 449.94ZM1548.19 426.594C1545.42 416.477 1527.02 387.424 1536.31 368.229C1533.79 382.063 1554.44 415.872 1561.21 423.481C1567.97 431.09 1544.81 460.662 1545.33 468.271C1545.85 475.88 1573.35 538.741 1573.35 538.741C1573.35 538.741 1521.56 487.12 1523.03 472.508C1524.42 457.808 1551.06 436.71 1548.19 426.507V426.594ZM1542.99 707.957C1539.17 728.276 1540.47 763.814 1540.47 763.814C1540.47 763.814 1516.26 723.607 1529.88 694.9C1543.51 666.107 1551.14 658.498 1551.49 647.776C1551.92 636.967 1526.07 569.783 1526.41 531.651C1538.73 568.832 1588.8 655.125 1588.8 655.125C1588.8 655.125 1546.8 687.724 1542.99 707.957ZM1579.95 406.793C1579.95 395.379 1590.97 356.469 1588.89 339.522C1594.79 361.484 1596.52 397.022 1598.26 405.063C1599.99 413.105 1628.8 454.522 1629.67 499.831C1614.83 462.218 1580.04 418.206 1580.04 406.793H1579.95ZM1710.71 493.087L1700.55 499.831L1658.56 413.105L1700.99 465.936H1725.63C1725.63 465.936 1743.42 545.053 1743.42 546.264C1743.42 547.474 1710.71 493 1710.71 493V493.087ZM1763.37 419.676C1761.29 417.774 1755.3 424.086 1743.42 422.443C1731.53 420.714 1700.12 363.646 1698.82 363.213C1698.82 363.213 1743.42 401.259 1746.8 402.124C1750.18 402.988 1764.59 400.048 1768.4 400.827C1772.22 401.691 1809.18 465.504 1809.18 465.504C1809.18 465.504 1765.45 421.492 1763.37 419.59V419.676ZM1855.08 476.571C1848.32 481.673 1824.98 459.192 1803.28 424.086C1816.47 433.425 1861.85 471.47 1855.08 476.571Z" fill="black" fill-opacity="0.04"/>
<path d="M767.559 693.69C821.875 679.336 889.465 649.419 900.832 637.573C912.111 625.727 932.935 587.941 956.449 571.599C979.962 555.256 1056.75 520.497 1056.75 520.497L1063.78 494.903C1063.78 494.903 986.643 538.309 956.449 553.008C926.254 567.708 897.968 615.005 882.697 628.58C867.427 642.156 767.559 693.69 767.559 693.69Z" fill="black" fill-opacity="0.04"/>
<path d="M1275.57 147.479C1275.57 147.479 1273.84 180.25 1291.71 216.566C1258.57 179.731 1241.82 116.61 1241.82 116.61L1172.84 47.869C1172.84 47.869 1172.67 123.268 1193.23 159.065C1153.75 115.486 1161.82 86.7791 1160.96 74.0684C1160.09 61.3578 1124.86 27.117 1124.86 27.117C1124.86 27.117 1133.36 61.3578 1141.43 73.2038C1122.78 46.1397 1088.94 -6.08631 1044.26 1.26337C1036.62 2.56037 1044.26 19.4214 1050.59 26.2523C1056.92 32.9967 1064.99 41.9028 1065.86 53.7487C1066.73 65.5947 1082 89.7189 1082 89.7189C1082 89.7189 1063.34 72.7714 1056.58 59.2826C1049.81 45.7073 1034.1 27.117 1028.12 30.9215C1022.22 34.726 982.305 63.0872 969.984 67.7564C957.663 72.4256 893.63 123.182 893.63 123.182C893.63 123.182 834.195 230.573 832.547 246.656C830.811 262.739 788.383 310.555 776.062 328.281C763.741 346.007 748.904 389.586 739.533 412.845C730.163 436.105 676.715 524.474 676.715 524.474L718.276 479.684C718.276 479.684 727.994 493.26 732.245 500.869C736.497 508.478 708.471 564.249 685.999 584.828C663.526 605.407 547.434 669.652 547.434 669.652C608.777 647.257 688.515 617.599 702.571 599.873C716.541 582.148 756.453 510.64 756.453 498.361C756.453 486.083 735.542 480.635 734.067 465.331C732.679 450.113 751.854 442.244 753.59 423.308C755.325 404.458 792.374 317.559 829.683 281.502C835.323 307.442 831.679 366.932 831.679 366.932C831.679 366.932 860.832 275.017 861.7 214.145C910.462 145.663 927.469 147.738 944.909 123.614C962.349 99.4897 979.702 96.5498 996.274 85.5685C1012.85 74.5872 1028.98 66.9782 1041.22 71.215C1053.45 75.4519 1065.86 91.1024 1064.56 108.05C1063.26 124.997 1085.82 182.93 1085.82 182.93C1085.82 182.93 1066.55 157.25 1060.05 144.885C1053.54 132.52 1049.29 140.648 1042.52 147.133C1035.75 153.618 1023 165.983 1016.75 165.464C1010.5 164.859 996.968 127.678 992.109 128.283C987.337 128.888 992.37 166.329 998.877 177.05C1005.38 187.772 1017.27 203.855 1015.28 214.836C1013.28 225.818 1028.55 272.596 1028.55 272.596C1028.55 272.596 1004.52 239.912 998.27 220.457C998.27 220.457 986.383 238.182 982.391 238.528C978.4 238.874 953.238 191.145 953.238 191.145C953.238 191.145 954.106 227.201 955.494 238.269C956.882 249.25 967.641 255.216 969.116 258.589C970.591 261.961 965.125 285.653 970.504 297.239C975.884 308.826 991.415 343.499 991.415 343.499L999.311 284.01C999.311 284.01 1052.24 282.281 1060.39 290.754C1068.64 299.228 1059.27 318.683 1068.64 338.138C1078.01 357.593 1100.39 404.977 1087.03 410.079C1072.89 415.44 1069.76 403.334 1055.36 374.022C1044.08 384.484 1016.92 413.537 1016.92 413.537L1035.32 468.79C1035.32 468.79 1006.77 451.064 985.515 414.402C964.257 377.74 954.106 368.747 954.106 368.747C954.106 368.747 970.244 413.278 975.363 437.575C980.483 461.786 963.477 507.786 963.477 507.786L1070.46 466.368L1105.77 430.831L1151.59 376.443L1173.28 346.18L1200.78 330.616L1155.92 242.765L1207.38 299.142L1197.74 259.626L1239.05 307.529L1272.97 290.063L1213.54 195.295C1213.54 195.295 1278.61 256.773 1288.24 261.874C1297.87 266.976 1336.05 239.566 1336.05 239.566L1365.2 197.63L1275.31 147.998L1275.57 147.479ZM1222.82 250.461C1222.82 250.461 1190.89 212.415 1178.66 207.054C1166.51 201.693 1150.89 206.19 1147.25 201.434C1143.6 196.678 1128.85 172.987 1114.71 130.099C1114.71 130.099 1147.51 176.099 1153.49 184.487C1159.39 192.96 1172.15 179.731 1184.9 192.96C1197.66 206.19 1222.82 250.461 1222.82 250.461Z" fill="black" fill-opacity="0.04"/>
<path d="M355.854 706.314C422.057 662.302 461.102 603.937 496.762 556.554C532.423 509.17 599.493 408.522 608.777 399.184C618.148 389.845 716.974 328.54 716.974 328.54C716.974 328.54 686.433 409.733 682.615 450.805L744.132 338.744L792.547 256.687L664.915 325.687C664.915 325.687 629.948 367.537 617.28 372.984C604.526 378.518 596.456 386.127 589.255 397.973C582.053 409.819 491.209 504.241 491.209 504.241L355.854 706.228V706.314Z" fill="black" fill-opacity="0.04"/>
<path d="M112.042 676.396C112.042 676.396 45.2322 777.39 16.9465 787.506C-11.3392 797.709 -17.5863 815.176 -98.4522 904.236L-105.567 894.293C-88.5609 869.823 -67.0429 838.089 -51.5118 812.495C-21.8379 763.382 38.0307 732.167 55.0368 716.517C66.0561 706.314 86.7064 689.28 106.229 674.753L112.042 676.396Z" fill="black" fill-opacity="0.04"/>
<path d="M424.92 556.64C424.92 556.64 376.591 630.742 351.343 662.302C326.18 693.949 281.236 717.9 251.475 729.746C221.801 741.592 169.481 773.672 169.481 773.672C169.481 773.672 191.78 744.705 211.563 726.028C231.432 707.438 250.087 706.573 255.206 702.942C260.238 699.31 260.846 695.592 267.006 684.87C273.166 674.148 274.728 666.02 276.116 656.423C277.505 646.825 311.777 617.253 318.805 606.272C325.92 595.204 320.801 588.46 314.293 584.742C307.786 580.937 289.999 577.738 283.752 573.501C277.505 569.264 284.272 554.91 290.259 546.437C296.159 537.963 303.014 520.756 298.155 520.497C279.24 519.373 255.726 561.136 253.471 578.602C251.215 596.069 224.925 613.535 208.526 625.122C192.04 636.708 170.262 679.25 158.982 694.727C147.616 710.291 140.588 740.468 128.441 746.089C116.294 751.709 98.1595 778.514 91.9124 791.743C85.6652 804.973 79.1578 822.525 30.4821 827.022C46.7941 823.736 74.1253 800.649 78.7239 789.495C83.4093 778.341 100.849 743.927 112.042 736.318C123.235 728.709 131.825 708.821 144.145 685.994C156.119 663.859 169.134 627.629 169.915 625.381H170.002C195.684 600.306 223.883 568.399 227.701 558.283C233.688 542.632 237.939 528.279 251.475 518.162C256.854 514.098 261.974 509.256 267.787 504.327L286.615 504.76C304.402 513.752 312.645 501.906 321.669 504.76C330.692 507.527 341.191 566.756 376.591 587.595C351.69 556.64 352.471 524.734 352.471 524.734L424.92 556.64Z" fill="black" fill-opacity="0.04"/>
<path d="M202.539 882.879C267.006 866.537 377.372 810.16 384.747 801.081C392.123 792.089 445.831 706.227 484.355 665.674C413.641 705.795 372.861 775.66 367.221 786.987C361.581 798.228 224.664 866.537 202.539 882.879Z" fill="black" fill-opacity="0.04"/>
<path d="M642.616 428.669C645.913 433.425 634.981 453.225 630.903 457.03C626.825 460.834 608.17 465.936 604.786 476.485C601.402 487.034 547.521 545.658 547.521 545.658C547.521 545.658 589.776 467.406 598.626 454.695C607.476 441.985 641.488 427.199 642.529 428.669H642.616Z" fill="black" fill-opacity="0.04"/>
<path d="M891.808 335.112C887.816 368.574 883.305 443.022 882.177 458.586C881.049 474.064 826.126 506.23 818.23 518.076C810.334 529.922 785.432 607.742 785.432 607.742C785.432 607.742 793.936 527.068 808.078 507.354C822.221 487.639 860.745 469.049 866.385 444.752C872.025 420.541 891.808 335.112 891.808 335.112Z" fill="black" fill-opacity="0.04"/>
<path d="M1264.99 443.282C1210.67 472.853 1194.27 481.068 1185.77 494.902C1177.27 508.737 1179.87 522.226 1176.4 533.985C1173.02 545.658 1161.65 569.091 1162 577.565C1162 577.565 1103.17 613.967 1074.88 666.107C1103.17 637.919 1138.22 606.877 1156.36 599.527C1174.49 592.178 1188.63 572.204 1192.89 545.658C1197.14 519.113 1195.4 509.602 1201.65 503.376C1207.9 497.151 1264.99 443.282 1264.99 443.282Z" fill="black" fill-opacity="0.04"/>
<path d="M2500.62 827.8L2493.42 850.714C2493.42 850.714 2442.23 810.679 2435.98 806.443C2429.82 802.206 2428.95 791.484 2409.43 778.254C2390.95 765.63 2370.73 745.57 2368.56 743.495C2369.95 746.002 2382.01 766.668 2398.41 787.852C2415.94 810.334 2420.45 848.725 2416.46 849.244C2412.55 849.849 2393.55 844.488 2385.05 837.138C2376.63 829.789 2345.75 775.142 2332.21 767.792C2318.59 760.442 2310.95 753.093 2286.05 718.419C2300.8 756.205 2325.7 775.66 2327.96 781.886C2330.21 788.112 2327.96 800.217 2327.96 800.217L2315.29 795.807C2316.68 798.315 2339.24 838.781 2356.76 861.695C2374.9 885.387 2375.16 870.169 2390.78 883.398C2406.31 896.627 2422.19 918.244 2422.19 918.244C2422.19 918.244 2394.42 896.627 2384.27 889.883C2374.03 883.139 2364.14 884.522 2357.11 880.545C2350 876.654 2346.35 866.796 2330.73 851.838C2315.2 836.879 2283.97 810.334 2278.68 797.018C2273.3 783.702 2247.01 754.13 2234.51 744.186C2222.02 734.243 2205.88 717.987 2205.88 717.987C2205.88 717.987 2207.35 724.472 2215.86 734.243C2224.27 743.927 2218.81 756.465 2224.1 776.784C2229.04 795.721 2249.35 814.83 2251.86 817.078C2249.17 815.003 2227.83 797.536 2223.23 792.781C2218.37 787.766 2213.08 791.743 2203.71 777.995C2194.43 764.247 2205.01 751.796 2196.77 747.386C2188.44 742.889 2179.76 719.889 2177.25 708.649C2174.64 697.408 2189.74 680.288 2181.41 668.442C2173.17 656.596 2144.1 603.591 2142.63 602.9C2141.15 602.294 2165.1 677.175 2165.1 677.175C2165.1 677.175 2158.5 688.156 2154.51 699.137C2150.44 710.119 2150.26 731.908 2150.26 731.908C2150.26 731.908 2138.81 709.513 2132.21 703.547C2125.62 697.667 2115.21 701.04 2108.01 698.273C2100.8 695.506 2051.61 653.483 2051.61 653.483C2051.61 653.483 2093.6 706.919 2102.28 713.318C2110.96 719.63 2112.52 710.378 2120.33 716.863C2128.22 723.434 2140.28 756.638 2151.91 771.683C2163.62 786.642 2156.16 798.315 2169.78 816.732C2183.32 835.15 2190.95 834.025 2200.76 842.932C2210.48 851.838 2206.49 863.251 2208.83 878.21C2211.08 892.65 2234.94 916.342 2236.77 918.158C2234.08 916.947 2192.08 897.146 2185.92 891.785C2179.5 886.251 2184.62 878.21 2174.9 869.823C2165.1 861.349 2141.32 847.341 2128.83 832.556C2116.34 817.77 2110.35 795.98 2107.83 784.999C2105.23 774.018 2098.29 772.115 2092.74 763.209C2087.27 754.303 2089.96 746.262 2085.01 740.987C2079.98 735.713 2063.93 727.671 2063.93 727.671C2063.93 727.671 2078.94 740.814 2080.41 747.559C2081.89 754.303 2079.63 759.405 2083.45 765.717C2087.27 772.115 2083.19 776.784 2081.54 783.529C2079.81 790.273 2084.67 813.792 2084.67 813.792C2084.67 813.792 2054.3 817.943 2042.06 824.082C2029.74 830.221 2013.17 849.503 2008.31 849.071C2003.45 848.638 1970.31 826.849 1967.1 827.713C1963.97 828.578 1962.85 833.853 1970.92 842.932C1978.99 852.011 1993.82 874.838 1985.58 880.372C1977.34 885.819 1957.12 913.143 1942.72 912.278C1935.52 909.598 1942.54 878.037 1942.89 871.293C1943.15 864.462 1937.51 859.966 1925.62 837.744C1913.74 815.435 1907.75 770.299 1907.75 770.299L1934.65 801.946L1971.7 780.762C1971.7 780.762 1947.14 757.935 1940.03 752.314C1933 746.608 1923.37 763.555 1914 753.698C1904.89 744.186 1887.1 700.694 1886.06 698.013C1888.14 700.261 1921.46 736.577 1923.37 738.48C1925.36 740.468 1931.26 737.615 1938.9 735.626C1946.53 733.638 1969.44 757.07 1980.2 768.397C1990.96 779.638 2041.28 806.097 2041.28 806.097C2041.28 806.097 2035.12 792.349 2020.63 776.525C2006.66 761.22 1986.88 724.558 1985.67 722.224L2020.11 748.077L2028.01 726.028C2010.48 719.543 1985.84 690.231 1977.42 683.227C1969.27 676.396 1933.61 683.227 1930.57 683.66L1967.45 648.814C1967.45 648.814 1955.3 624.862 1945.41 602.554C1946.8 602.554 2028.01 681.757 2028.01 681.757L1999.2 632.99L2031.74 603.418C2031.74 603.418 2007.1 570.734 2014.73 567.016C2022.11 563.471 2090.22 628.58 2094.38 632.558C2091.87 628.234 2044.15 549.117 2035.38 525.858C2026.88 503.376 2014.65 475.015 2013.17 471.557C2015.77 475.015 2050.05 520.929 2075.56 544.448C2049.01 502.771 2049.79 471.989 2051.26 457.117C2052.65 442.158 2062.02 424.346 2054.65 422.098C2047.27 419.849 2037.64 436.192 2009.61 449.162C1981.59 462.132 1962.41 466.628 1954.43 477.35C1946.53 488.072 1929.27 507.267 1919.12 518.249C1908.88 529.23 1910.35 534.937 1910.01 545.313C1909.75 555.429 1869.66 586.212 1867.14 588.114C1869.14 585.952 1902.63 550.328 1898.99 539.692C1895.34 528.711 1906.1 512.628 1906.1 512.628C1906.1 512.628 1852.57 543.324 1843.28 551.279C1833.91 559.147 1811.27 589.584 1806.49 607.915C1801.72 626.246 1801.98 653.915 1799.38 669.133C1796.86 684.351 1771.96 710.291 1755.3 755.427C1757.82 731.995 1770.57 697.321 1776.82 683.487C1782.98 669.652 1780.73 663.167 1780.99 650.802C1781.33 638.351 1789.23 606.531 1797.12 594.08C1805.11 581.715 1809.36 564.508 1824.63 552.922C1839.9 541.422 1895.6 508.132 1908.36 499.658C1921.11 491.185 1929.96 482.624 1938.03 472.421C1946.1 462.305 1990.26 443.282 2009.35 433.511C2028.44 423.827 2050.91 399.703 2062.37 399.703C2073.82 399.703 2129.61 475.102 2135.86 489.196C2142.02 503.29 2160.76 536.839 2170.91 555.516C2181.06 574.106 2175.42 586.471 2175.42 598.922C2175.42 611.373 2207.87 637.746 2209.87 639.389C2208.57 637.4 2187.57 605.58 2188.18 595.809C2188.7 585.606 2194.43 566.497 2182.8 546.696C2171.17 526.982 2165.27 505.279 2165.27 505.279C2165.27 505.279 2182.8 514.617 2191.82 522.226C2200.93 529.835 2197.46 550.674 2223.84 590.708C2250.13 630.742 2257.24 666.28 2267.4 676.137C2277.55 685.994 2285.53 681.239 2308.09 700.953C2330.04 720.062 2359.97 765.457 2361.8 768.224C2360.06 764.247 2331.52 700.261 2321.1 686.6C2310.43 672.505 2284.4 656.682 2282.06 639.821C2281.54 635.671 2283.27 629.099 2286.31 621.49C2308.09 629.445 2338.63 639.562 2364.75 644.317C2368.13 670.257 2389.65 689.972 2411.69 724.904C2433.73 759.923 2462.62 769.521 2499.41 825.898C2499.84 826.503 2500.28 827.195 2500.62 827.8Z" fill="black" fill-opacity="0.04"/>
<path d="M1840.77 702.164C1840.16 732.081 1842.5 761.653 1827.14 780.589C1811.87 799.439 1774.22 806.875 1769.53 814.484C1764.85 822.093 1762.33 837.917 1753.65 839.819C1760.42 827.108 1753.22 818.289 1760.42 810.42C1767.62 802.638 1815.34 789.236 1823.85 768.57C1832.35 747.818 1840.68 702.164 1840.68 702.164H1840.77Z" fill="black" fill-opacity="0.04"/>
</svg>
